<?xml version="1.0" encoding="utf-8"?>
<!-- Generator: Adobe Illustrator 27.0.1, SVG Export Plug-In . SVG Version: 6.00 Build 0)  -->
<svg version="1.1" xmlns="http://www.w3.org/2000/svg" xmlns:xlink="http://www.w3.org/1999/xlink" x="0px" y="0px"
	 viewBox="0 0 626.8 64.1" style="enable-background:new 0 0 626.8 64.1;" xml:space="preserve">
<style type="text/css">
	.st0{fill-rule:evenodd;clip-rule:evenodd;fill:#FEFEFE;}
	.st1{filter:url(#Adobe_OpacityMaskFilter);}
	.st2{fill-rule:evenodd;clip-rule:evenodd;fill:#FFFFFF;}
	.st3{mask:url(#mask-4_00000023966585328323575020000006386495739582596481_);fill-rule:evenodd;clip-rule:evenodd;fill:#FEFEFE;}
	.st4{fill:none;stroke:#FFFFFF;stroke-width:1.5299;stroke-linecap:square;}
	.st5{fill:#FFFFFF;}
</style>
<g id="Layer_2">
</g>
<g id="Layer_1">
	<g id="Symbols">
		<g id="Group-2" transform="translate(0.000000, -0.000000)">
			<g id="Logo_x2F_Defence_x5F_Industries" transform="translate(0.000000, 0.888084)">
				<path id="Fill-1" class="st0" d="M9.1,22.7c0-1,0-2-0.6-2.7c-0.4-0.4-0.7-0.6-1.6-0.6c-0.8,0-1.2,0-1.3,0.2
					c-0.1,0.2-0.1,0.4-0.1,0.7v22.3c0,0.4,0,0.8,0.2,1c0.1,0.1,0.7,0.1,1.1,0.1c0.6,0,1.3-0.2,1.9-0.9c0.6-0.8,0.5-1.7,0.5-2.4V22.7
					z M12.3,46.7c-1.6,1.6-3.9,2.1-5.7,2.1H1.4c-0.6,0-1,0-1.2-0.3C0,48.2,0,47.8,0,47.3V15.7c0-0.5,0-1,0.2-1.2
					c0.3-0.3,0.6-0.3,1.3-0.3h5.1c2.1,0,4.3,0.6,5.9,2c1.4,1.3,2,3.3,2,5.4v19.7C14.5,43.1,14,45,12.3,46.7L12.3,46.7z"/>
				<path id="Fill-3" class="st0" d="M30.1,48.8h-9.6c-0.8,0-1.6,0.1-2-0.2c-0.4-0.3-0.3-1.1-0.3-1.7V15.7c0-0.6,0.1-0.7,0.3-1.1
					c0.3-0.4,0.6-0.4,1.1-0.4H30c0.6,0,0.6,0.4,0.6,2.3c0,2.2,0,2.5-0.6,2.5h-5c-0.4,0-1,0-1.1,0.2c-0.2,0.3-0.2,0.3-0.2,0.9v6.5
					c0,0.4-0.1,1,0.3,1.3c0.3,0.2,0.7,0.2,1.1,0.2h2.4c0.6,0,0.6,0.3,0.6,2.5c0,2.1,0,2.4-0.6,2.4h-2.2c-0.5,0-1,0-1.2,0.1
					c-0.4,0.3-0.3,0.8-0.3,1.4v7.4c0,0.6,0,1.6,0.2,1.7s0.9,0.2,1.5,0.2H30c0.6,0,0.6,0.2,0.6,2.4C30.7,48.6,30.6,48.8,30.1,48.8"/>
				<path id="Fill-5" class="st0" d="M45.4,19h-4.8c-0.4,0-0.9,0-1.1,0.2c-0.3,0.3-0.3,0.7-0.3,1.4v6.8c0,0.4-0.1,1,0.3,1.3
					c0.3,0.2,0.7,0.2,1.1,0.2c0.8,0,2.3,0,2.8,0c0.7,0,0.7,0.2,0.7,2.4c0,2.1,0,2.4-0.7,2.4c-0.4,0-1.8,0-2.6,0c-0.5,0-1,0-1.2,0.1
					c-0.4,0.3-0.3,0.9-0.3,1.6V48c0,0.8-0.4,0.8-2.9,0.8c-2.1,0-2.4,0-2.4-0.7V15.7c0-0.6,0-0.8,0.3-1.1c0.3-0.4,0.5-0.4,1-0.4h10.5
					c0.6,0,0.6,0.3,0.6,2.3C46.1,18.8,46.1,19,45.4,19"/>
				<path id="Fill-7" class="st0" d="M60.3,48.8h-9.6c-0.8,0-1.6,0.1-2-0.2c-0.4-0.3-0.3-1.1-0.3-1.7V15.7c0-0.6,0.1-0.7,0.3-1.1
					c0.3-0.4,0.6-0.4,1.1-0.4h10.3c0.6,0,0.6,0.4,0.6,2.3c0,2.2,0,2.5-0.6,2.5h-5c-0.4,0-1,0-1.1,0.2c-0.2,0.3-0.2,0.3-0.2,0.9v6.5
					c0,0.4-0.1,1,0.3,1.3c0.3,0.2,0.7,0.2,1.1,0.2h2.4c0.6,0,0.6,0.3,0.6,2.5c0,2.1,0,2.4-0.6,2.4h-2.2c-0.5,0-1,0-1.2,0.1
					c-0.4,0.3-0.3,0.8-0.3,1.4v7.4c0,0.6,0,1.6,0.2,1.7S55,44,55.6,44h4.7c0.6,0,0.6,0.2,0.6,2.4C60.9,48.6,60.9,48.8,60.3,48.8"/>
				<path id="Fill-9" class="st0" d="M76.8,48.8c-1.3,0-1.8-0.1-2.2-1.3c-1.6-5.7-2.2-8.4-4-14.6c-0.3-1.1-0.7-2.9-1-2.9
					c-0.3,0-0.3,1-0.3,1.7v16.3c0,0.8-0.1,0.9-2.7,0.9C64,48.8,64,48.7,64,48V14.9c0-0.7,0.1-0.7,2.3-0.7c2.1,0,2.4,0.2,2.8,1.6
					c1.1,4.1,2.5,9.4,4,14.6c0.1,0.5,0.3,1.3,0.6,1.3c0.3,0,0.3-0.9,0.3-1.5V15.1c0-0.8,0.1-0.9,2.6-0.9c2.5,0,2.6,0,2.6,0.8v32.4
					C79.3,48.7,79.4,48.8,76.8,48.8"/>
				<path id="Fill-11" class="st0" d="M90.3,48.8c-4.5,0-7.2-3.2-7.2-6.9V21.2c0-3.8,2.7-7,7.2-7c4.7,0,7,3.4,7,7v2.7
					c0,0.5-0.4,0.6-2.7,0.6c-1.6,0-2.5,0.1-2.5-0.5v-2.6c0-0.7-0.5-2.1-1.8-2.1c-1.5,0-1.9,1.5-1.9,2.8v18.7c0,1.4,0.3,2.8,1.9,2.8
					c1.4,0,1.8-1.2,1.8-2V39c0-0.7,0.4-0.6,2.6-0.6c2.1,0,2.5,0,2.5,0.9v2.6C97.3,46,94.9,48.8,90.3,48.8"/>
				<path id="Fill-13" class="st0" d="M112.2,48.8h-9.6c-0.8,0-1.6,0.1-2-0.2c-0.4-0.3-0.3-1.1-0.3-1.7V15.7c0-0.6,0-0.7,0.3-1.1
					c0.3-0.4,0.6-0.4,1.1-0.4h10.3c0.6,0,0.6,0.4,0.6,2.3c0,2.2,0,2.5-0.6,2.5h-5c-0.4,0-1,0-1.1,0.2c-0.2,0.3-0.2,0.3-0.2,0.9v6.5
					c0,0.4-0.1,1,0.3,1.3c0.3,0.2,0.7,0.2,1.1,0.2h2.4c0.6,0,0.6,0.3,0.6,2.5c0,2.1,0,2.4-0.6,2.4h-2.2c-0.5,0-1,0-1.2,0.1
					c-0.4,0.3-0.3,0.8-0.3,1.4v7.4c0,0.6,0,1.6,0.2,1.7c0.2,0.1,0.9,0.2,1.5,0.2h4.7c0.6,0,0.6,0.2,0.6,2.4
					C112.8,48.6,112.8,48.8,112.2,48.8"/>
				<path id="Fill-15" class="st0" d="M199.8,48.8c-2.4,0-2.5,0-2.5-0.7V15c0-0.7,0.2-0.8,2.5-0.8c2.6,0,2.8,0,2.8,0.8V48
					C202.6,48.7,202.5,48.8,199.8,48.8"/>
				<path id="Fill-17" class="st0" d="M219.4,48.8c-1.3,0-1.8-0.1-2.2-1.3c-1.6-5.7-2.2-8.4-4-14.6c-0.3-1.1-0.7-2.9-1-2.9
					c-0.3,0-0.3,1-0.3,1.7v16.3c0,0.8-0.1,0.9-2.7,0.9c-2.5,0-2.5-0.1-2.5-0.8V14.9c0-0.7,0.1-0.7,2.3-0.7c2.1,0,2.4,0.2,2.8,1.6
					c1.1,4.1,2.5,9.4,4,14.6c0.1,0.5,0.3,1.3,0.6,1.3c0.3,0,0.3-0.9,0.3-1.5V15.1c0-0.8,0.1-0.9,2.6-0.9c2.5,0,2.6,0,2.6,0.8v32.4
					C221.9,48.7,222,48.8,219.4,48.8"/>
				<path id="Fill-19" class="st0" d="M235.1,22.7c0-1,0-2-0.6-2.7c-0.4-0.4-0.7-0.6-1.6-0.6c-0.8,0-1.2,0-1.3,0.2
					c-0.2,0.2-0.2,0.4-0.2,0.7v22.3c0,0.4,0,0.8,0.2,1c0.1,0.1,0.7,0.1,1.1,0.1c0.6,0,1.3-0.2,1.9-0.9c0.6-0.8,0.5-1.7,0.5-2.4V22.7
					z M238.4,46.7c-1.6,1.6-3.9,2.1-5.7,2.1h-5.2c-0.6,0-1,0-1.2-0.3c-0.2-0.2-0.2-0.7-0.2-1.2V15.7c0-0.5,0-1,0.2-1.2
					c0.3-0.3,0.6-0.3,1.3-0.3h5.1c2.1,0,4.3,0.6,5.9,2c1.4,1.3,2,3.3,2,5.4v19.7C240.5,43.1,240,45,238.4,46.7L238.4,46.7z"/>
				<path id="Fill-21" class="st0" d="M251.1,48.8c-4.5,0-7.2-3.3-7.2-6.9V15c0-0.8,0.3-0.8,2.8-0.8c2,0,2.5,0.1,2.5,0.8v25.8
					c0,1.3,0.2,2.8,1.9,2.8c1.6,0,1.9-1.4,1.9-2.8V15c0-0.7,0.2-0.8,2.5-0.8c2.6,0,2.9,0.1,2.9,0.7v27
					C258.4,46,255.7,48.8,251.1,48.8"/>
				<path id="Fill-23" class="st0" d="M275,44.7c-1.7,3-2.8,4.1-6.4,4.1c-4.1,0-7.2-2.4-7.2-6.9v-2.8c0-0.4,0.4-0.5,2.4-0.5
					c2,0,2.9,0,2.9,0.4v2.1c0,1.8,0.3,2.9,1.8,2.9c1.3,0,1.7-1,1.8-1.8c0.1-0.8,0.1-1.6,0.1-2.3c0-4.3-9.4-10.3-9.4-17.7
					c0-1.4,0.6-3.7,1.2-4.8c0.6-1.1,2.4-3.2,5.8-3.2c4.2,0,7.1,3.1,7.1,6.7v2.4c0,0.3-0.7,0.3-2.4,0.3c-1.9,0-2.9,0-2.9-0.3V21
					c0-1.4-0.9-2.2-1.8-2.2c-0.9,0-1.6,0.8-1.7,1.6c-0.1,0.7-0.1,1.3-0.1,2c0,5.8,9.5,9.9,9.5,17.9C275.8,41.8,275.6,43.6,275,44.7"
					/>
				<path id="Fill-25" class="st0" d="M291.8,19h-2.1c-0.5,0-1.2,0-1.4,0.1c-0.4,0.3-0.3,1.2-0.3,1.8v27.4c0,0.4-0.5,0.5-2.9,0.5
					c-2.1,0-2.5,0-2.5-0.5V21c0-0.6,0.1-1.5-0.3-1.8c-0.2-0.1-0.9-0.1-1.4-0.1h-1.8c-0.7,0-0.9-0.3-0.9-2.4c0-2.1,0.1-2.4,0.7-2.4
					h13.1c0.6,0,0.6,0.4,0.6,2.3C292.4,18.8,292.3,19,291.8,19"/>
				<path id="Fill-27" class="st0" d="M304.2,22.7c0-1-0.1-2-0.7-2.7c-0.3-0.4-0.6-0.6-1.8-0.6c-0.4,0-0.8,0-1,0.2
					c-0.1,0.2-0.1,0.4-0.1,0.6v7.4c0,0.4,0,0.8,0.2,1c0.2,0.1,0.5,0.1,0.9,0.1c0.4,0,1.2-0.1,1.8-0.7c0.6-0.7,0.7-1.4,0.7-1.9V22.7z
					 M306.9,48.8c-2.4,0-2.6,0-2.6-0.8V36.6c0-1.7-0.6-3.1-1.8-3.1c-1.7,0-1.9,0-1.9,0.6v13.8c0,0.9-0.4,0.9-2.9,0.9
					c-2,0-2.4,0-2.4-1.1v-32c0-0.5,0.1-1,0.2-1.2c0.3-0.4,0.6-0.3,1.3-0.3h4.9c2.1,0,4.3,0.6,5.8,2c1.5,1.4,2,3.4,2,5.4v4.2
					c0,1.4-0.2,2.4-0.8,3.3c-0.9,1.3-2.4,1.6-2.4,1.8c0,0.2,1.6,0.3,2.5,1.5c0.6,0.9,0.9,1.7,0.9,3.1V48
					C309.6,48.8,309.3,48.8,306.9,48.8L306.9,48.8z"/>
				<g id="Group-38" transform="translate(119.048852, 0.000000)">
					<g id="Clip-37">
					</g>
					<defs>
						<filter id="Adobe_OpacityMaskFilter" filterUnits="userSpaceOnUse" x="0" y="0" width="71" height="62.4">
							<feColorMatrix  type="matrix" values="1 0 0 0 0  0 1 0 0 0  0 0 1 0 0  0 0 0 1 0"/>
						</filter>
					</defs>
					
						<mask maskUnits="userSpaceOnUse" x="0" y="0" width="71" height="62.4" id="mask-4_00000023966585328323575020000006386495739582596481_">
						<g class="st1">
							<polygon id="path-3_00000129908005266052804620000001680740733706299327_" class="st2" points="0,0 71,0 71,62.4 0,62.4 
															"/>
						</g>
					</mask>
					<path id="Fill-36" class="st3" d="M35.5,13c-10.1,0-18.3,8.2-18.3,18.2c0,10.1,8.2,18.2,18.3,18.2s18.3-8.2,18.3-18.2
						C53.8,21.1,45.6,13,35.5,13 M55,2.3l15.4,26.5c0.8,1.5,0.8,3.2,0,4.7L55,60.1c-0.8,1.5-2.4,2.3-4.1,2.3H20.1
						c-1.7,0-3.2-0.9-4.1-2.3L0.6,33.5c-0.8-1.5-0.8-3.2,0-4.7L16,2.3C16.9,0.9,18.4,0,20.1,0h30.8C52.6,0,54.1,0.9,55,2.3"/>
				</g>
				<path id="Fill-39" class="st0" d="M160.4,20.4C160.3,20.4,160.3,20.4,160.4,20.4l-0.4,0.1c-0.1,0-0.1,0.1-0.1,0.2l0,0.6
					l-0.2,0.3c-0.1,0.1-0.1,0.2,0,0.3c0,0,0,0,0,0l-0.3,0.6c0,0,0,0.1,0,0.1l0.1,0.7l-0.6,1.4l-0.4,0l-0.3-0.4c0,0,0,0-0.1-0.1
					l-1.4-0.6l-0.6-0.5l0.4-0.6c0,0,0-0.1,0-0.1c0.1,0,0.2-0.1,0.2-0.2l0-0.2l0.2-0.2c0.1-0.1,0.1-0.2,0.1-0.3l-0.2-0.3
					c-0.1-0.1-0.2-0.1-0.3-0.1c0,0,0,0,0,0l-0.1,0.1c-0.1,0-0.1,0-0.2,0l-0.3,0.1l-0.3-0.2c-0.1,0-0.2-0.1-0.2,0l-0.2,0.1l0,0
					c0-0.1-0.1-0.2-0.3-0.2l-0.2,0l-0.9-0.3c-0.1,0-0.2,0-0.3,0.1c0,0.1,0,0.2,0,0.2l0.3,0.3l-0.5,0.1H153c0,0-0.1,0-0.1,0l-0.3,0.1
					c-0.1,0-0.1,0.1-0.1,0.1c-0.1,0-0.2,0.1-0.2,0.2c0,0,0,0,0,0l0.1,0.3l-0.2,0.1c-0.1,0-0.1,0.1-0.1,0.1l-0.3,0.5
					c-0.1,0.1,0,0.2,0.1,0.3l0.2,0.1l0,0l-0.6-0.2c0,0-0.1,0-0.1,0l-0.1,0l-0.4-0.5c0-0.1-0.1-0.1-0.2-0.1l-0.4,0
					c-0.1,0-0.1,0-0.2,0l-0.2,0.2l-0.1,0c-0.1,0-0.1,0.1-0.2,0.1l0,0c-0.1,0-0.2,0-0.3,0.1l-0.3,0.4c-0.1,0.1-0.1,0.1,0,0.2l0,0
					c0,0-0.1,0-0.1,0.1l-0.3,0.4c0,0.1,0,0.1,0,0.2l-0.2-0.1c-0.1-0.1-0.2,0-0.3,0.1c0,0,0,0.1,0,0.1l0,0.1c-0.1,0-0.1,0-0.2,0.1
					l-0.5,0.5c-0.1,0.1-0.1,0.1-0.1,0.2l0.1,0.5l-0.6,0.7l-1.1,0.5c0,0,0,0,0,0l-0.9,0.6l-0.2,0c-0.1,0-0.1,0-0.2,0l-1.1,0.9
					c0,0-0.1,0.1-0.1,0.1l0,0.1c-0.1,0-0.2,0-0.2,0l-0.2,0.1c-0.1,0-0.1,0.1-0.1,0.2v1.5c0,0,0,0.1,0,0.1l0.5,0.9l-0.1,0.2
					c-0.1,0.1,0,0.2,0,0.3l0.8,1l0.4,1l0.2,0.6c0,0,0,0,0,0.1l0.5,0.7l0.1,0.4l-0.3,0.1c-0.1,0-0.1,0.1-0.1,0.2l0,0.5
					c0,0.1,0,0.2,0.1,0.2l1.1,0.5c0,0,0.1,0,0.1,0l0.6-0.1c0.1,0,0.1,0,0.1-0.1l0.7-1l1.8,0c0.1,0,0.2-0.1,0.2-0.2l0.2-0.8l0.9-0.4
					l2.6-0.5l1.4,0.5l0,0c0,0.1,0,0.2,0.1,0.2l0.3,0.2l0.4,0.9c0,0,0.1,0.1,0.1,0.1l0.3,0.1c0.1,0.1,0.2,0,0.3-0.1c0,0,0,0,0-0.1
					l0-0.2l0.6-0.6l0,0l-0.2,0.3c0,0,0,0.1,0,0.1l0,0.2l-0.1,0.1c-0.1,0.1-0.1,0.2,0,0.3c0,0.1,0.1,0.1,0.2,0.1l0.4,0
					c0,0,0.1,0,0.1,0c0,0.1,0,0.2,0.1,0.2l0.5,0.2l0.1,0.6c0,0,0,0.1,0,0.1l0.5,0.6c0,0,0.1,0.1,0.1,0.1l1.5,0.5c0.1,0,0.2,0,0.2,0
					l0.5-0.4l0.4,0.5c0.1,0.1,0.2,0.1,0.3,0.1l0.7-0.5c0,0,0,0,0,0l0.2-0.1l1-0.1c0.1,0,0.2-0.1,0.2-0.2l0.3-1.3l0.5-0.9l1-0.9
					c0,0,0,0,0.1-0.1l0.8-2c0,0,0-0.1,0-0.1l-0.1-1l0.1-0.9c0,0,0-0.1,0-0.1l-0.7-1.4c0,0,0-0.1-0.1-0.1l-0.3-0.2l-0.3-0.8
					c0-0.1-0.1-0.1-0.2-0.1l-0.1,0l-0.3-1.2c0-0.1,0-0.1-0.1-0.1l-1.4-0.9l-0.2-1.2c0,0,0-0.1-0.1-0.1l-0.3-0.3l0-0.9
					c0-0.1,0-0.1-0.1-0.2l-0.5-0.5c-0.1-0.1-0.1-0.1-0.2-0.1l-0.2,0.1l-0.1-0.8c0,0,0,0,0-0.1l-0.6-1.4
					C160.6,20.5,160.5,20.4,160.4,20.4L160.4,20.4z"/>
				<path id="Fill-41" class="st0" d="M160.4,39.7c-0.1,0-0.2,0.1-0.2,0.2l-0.1,0.5c0,0.1,0,0.1,0,0.2l0.2,0.3l0.1,0
					c-0.1,0.1-0.1,0.2-0.1,0.3l0.2,0.4l0.1,0.3c0,0,0.1,0.1,0.1,0.1l0.4,0.2c0.1,0.1,0.2,0,0.3-0.1c0,0,0,0,0,0l0.1-0.2l0.1,0.1
					c0.1,0.1,0.2,0.1,0.3,0c0,0,0-0.1,0.1-0.1l0.2-0.7c0,0,0,0,0-0.1l0-0.8c0-0.1-0.1-0.2-0.2-0.2c0,0-0.1,0-0.1,0l-0.7,0.2
					l-0.8-0.4C160.5,39.7,160.4,39.7,160.4,39.7z"/>
			</g>
			<g id="Group" transform="translate(375.089877, 0.000000)">
				<line id="Line-4" class="st4" x1="-21.2" y1="1.5" x2="-21.2" y2="62.5"/>
				<g id="Aus_Government_Logo" transform="translate(25.996277, 0.000000)">
					<path id="Fill-1_00000076564991632402984370000004754007425578018182_" class="st2" d="M6.4,51.5l0.2-0.2
						C6.6,51.4,6.6,51.5,6.4,51.5L6.4,51.5z M8.6,35.3c-0.2,0-0.4-0.2-0.4-0.4c0-0.2,0.2-0.4,0.4-0.4s0.4,0.2,0.4,0.4
						C9.1,35.1,8.8,35.3,8.6,35.3L8.6,35.3z M12.9,17.2L12.9,17.2v12.4c0,1.2,0.5,2.2,1.1,2.6l5.7,3.5c0.1,0.1,0.3,0.2,0.5,0.2
						c0.2,0,0.4-0.1,0.5-0.2l5.8-3.6c0.6-0.3,1.1-1.4,1.1-2.6V17.2L12.9,17.2L12.9,17.2z M15.4,18.4h0.2l0.1-0.3l0.1,0.3h0.2
						l-0.1,0.2l0.2,0.2l-0.2,0.1v0.3l-0.2-0.1l-0.2,0.1v-0.3l-0.2-0.1l0.2-0.2L15.4,18.4z M15.3,21.2c0.4,0,0.3,0.4,0.4,0.4
						s0-0.4,0.3-0.4c0.4,0,0.9,1.1,0.5,1.1c-0.2,0-0.1-0.1-0.1-0.2S16.2,22,16.2,22c-0.1,0-0.2,0.2-0.3,0.2s-0.1,0-0.1-0.1
						S15.9,22,16,22c-0.9,0-1,0.4-1.1,0.4c-0.3,0,0.2-0.5,0.4-0.6c-0.2,0-0.3-0.3-0.5-0.4c0.1-0.1,0.1-0.1,0.3,0
						C15,21.4,15.1,21.2,15.3,21.2L15.3,21.2z M15.3,25.1l0.2-0.2l-0.1-0.2h0.2l0.1-0.3l0.1,0.3h0.2l-0.1,0.2l0.2,0.2l-0.2,0.1v0.3
						l-0.2-0.1l-0.2,0.1v-0.3L15.3,25.1z M13.3,20.9h1.6v-3.2h-1.6V20.9z M13.5,22l0.2-0.2l-0.1-0.2h0.2l0.1-0.3l0.1,0.3h0.2
						l-0.1,0.2l0.2,0.2L14.1,22v0.3l-0.2-0.1l-0.2,0.1V22L13.5,22z M13.3,26h1.6v-3h-1.6V26z M17.9,34.1l-3.6-2.2
						c-0.6-0.4-0.9-1.2-1-2.1v-3.5h4.5L17.9,34.1z M16.6,26h1.3v-3h-1.3V26z M17,21.5h0.2l0.1-0.3l0.1,0.3h0.2l-0.1,0.2l0.2,0.2
						L17.6,22v0.3l-0.2-0.1l-0.2,0.1V22L16.9,22l0.2-0.2L17,21.5z M16.6,20.9h1.3v-3.2h-1.3V20.9z M22.4,34.4l-1.6,1
						c-0.1,0.1-0.3,0.1-0.4,0.1c-0.1,0-0.3-0.1-0.4-0.1l-1.6-1v-8h4.2L22.4,34.4z M18.2,26h4.2v-8.3h-4.2V26z M27.4,29.9
						c-0.1,0.9-0.4,1.6-1,2.1l-3.6,2.2v-7.8h4.5L27.4,29.9z M22.9,26h4.5v-8.3h-4.5V26z M13.8,28.4c-0.1-0.1-0.2-0.1-0.2-0.3
						c0-0.2,0.3,0.1,0.3-0.1c0-0.2-0.3-0.2-0.3-0.4c0-0.2,0.3,0.1,0.4,0.1c0-0.4-0.4-0.5-0.4-0.9c0.3,0,1.1,0.7,1.1,1.2v0.4
						c0,0.2,0.2,0.7,0.4,0.7c0.2,0,0.1-0.4,0.1-0.4c0-0.1-0.2-0.4-0.3-0.4c0.1-0.2,0.6-0.2,0.8-0.2c0.6,0,0.4,1.2,0.6,1
						c0.1-0.2,0.3-0.7,0.3-1.1c0-0.5,0.4-0.4,0.8-1c0.1,0.1,0,0.5-0.5,0.9c0.6-0.3,0.8-0.3,0,0.6c0.5-0.1,1-0.6,0.1,0.7
						c0.3-0.1,0.5-0.3,0.5-0.1c-0.1,0.1-0.4,0.4-0.4,0.6c0.1-0.1,0.4-0.1,0.4-0.1c0,0.1-0.1,1.5-0.6,1c-0.6-0.4-0.1,0.4-0.1,0.3
						c0.1,0.2,0.1,0.1,0.2,0.3c0.1,0.1-0.5,0.1-0.5,0.4c0,0.3,0.2,0.1,0.2,0.6c0,0.1-0.5-0.1-0.4-0.1c-0.1,0-0.1,0.4-0.3,0.4
						c-0.2,0-0.2-0.4-0.4-0.4c0,0.1-0.5,0.4-0.5,0.2c0-0.1,0.1-0.1,0.1-0.7c0-0.4-0.5,0-0.5-0.4c0-0.3,0.3-0.1,0.3-0.4
						c0-0.3-0.1-0.1-0.1-0.2c-0.1,0.1,0,0.3-0.3,0.3c-0.4,0-1-0.4-1-1.4c0-0.3,0.1-0.4,0.1-0.4c-0.1-0.1-0.1-0.1-0.1-0.2
						C13.5,28.4,13.6,28.4,13.8,28.4L13.8,28.4z M33,32c0-0.2,0.2-0.4,0.5-0.4S34,31.8,34,32c0,0.2-0.2,0.4-0.5,0.4S33,32.2,33,32
						L33,32z M31.5,32.8c0.3,0,0.5,0.2,0.5,0.4c0,0.2-0.2,0.4-0.5,0.4c-0.3,0-0.5-0.2-0.5-0.4C31,33,31.2,32.8,31.5,32.8L31.5,32.8z
						 M8.4,36c0,0.2-0.2,0.4-0.5,0.4c-0.3,0-0.5-0.2-0.5-0.4c0-0.2,0.2-0.4,0.5-0.4C8.2,35.6,8.4,35.8,8.4,36L8.4,36z M9,36.2
						c0-0.2,0.2-0.4,0.5-0.4s0.5,0.2,0.5,0.4c0,0.2-0.2,0.4-0.5,0.4S9,36.5,9,36.2L9,36.2z M52,18.1c-0.5-1-0.9-2.3-0.5-3.4
						c0.4,0.1,0.2,0.5,0.4,0.7c0.7,0.9,0.9,2.3,0.4,3.3C52,18.7,52,18.3,52,18.1L52,18.1z M-11.4,15.3c0.1-0.1,0.2-0.1,0.3-0.1
						c0.5,0.3,0.6,0.8,0.8,1.3c-0.1,0.7-0.1,1.6,0,2.1c-0.1,0.1-0.1-0.1-0.2-0.1C-11.6,17.9-11.1,16.3-11.4,15.3L-11.4,15.3z
						 M53.1,17.1c-0.1-0.3,0.1-0.6,0.3-0.7c0.3,0,0.5,0,0.6,0.3c0.1,0.3-0.1,0.6-0.4,0.7C53.5,17.4,53.3,17.3,53.1,17.1L53.1,17.1z
						 M-12.7,18.3c-0.1-0.1-0.2-0.4-0.1-0.6c0.1-0.2,0.3-0.2,0.5-0.2c0.2,0.1,0.4,0.1,0.4,0.4c-0.1,0.2-0.1,0.5-0.4,0.6
						C-12.4,18.5-12.7,18.5-12.7,18.3L-12.7,18.3z M54.2,18.6c0.1-0.2,0.3-0.4,0.4-0.5c0.2,0,0.4,0.1,0.6,0.3c0.1,0.1,0.1,0.3,0,0.4
						C55,19,54.8,19.1,54.5,19C54.3,18.9,54.2,18.7,54.2,18.6L54.2,18.6z M52.8,18.9c0-0.3,0.1-0.5,0.4-0.6c0.2-0.1,0.4,0.1,0.5,0.1
						c0.2,0.1,0.1,0.4,0,0.5c-0.1,0.1-0.3,0.4-0.6,0.3C53,19,52.8,19,52.8,18.9L52.8,18.9z M50.8,19.1c0-0.3,0.1-0.5,0.4-0.7
						c0.2,0,0.4,0.1,0.5,0.3c0,0.3,0,0.7-0.3,0.7C51.1,19.6,51,19.3,50.8,19.1L50.8,19.1z M-10,19.2c-0.2-0.2,0.1-0.4,0.1-0.5
						c0.3-0.2,0.6-0.1,0.8,0.2c0.1,0.3-0.2,0.4-0.4,0.6C-9.6,19.5-9.8,19.4-10,19.2L-10,19.2z M-11.5,19.2c-0.1-0.3,0-0.5,0.2-0.6
						c0.3-0.1,0.5,0.1,0.6,0.4c0,0.2-0.1,0.4-0.3,0.5C-11.1,19.6-11.3,19.4-11.5,19.2L-11.5,19.2z M45.1,21.7c-0.5-1-0.1-2.1,0.1-3
						c0.2-0.1,0.2,0.2,0.3,0.3c0.3,0.6,0.5,1.3,0.5,1.9c-0.1,0.5,0.1,1.2-0.3,1.6C45.3,22.4,45.3,22,45.1,21.7L45.1,21.7z
						 M-11.9,19.4c0.1,0.3-0.1,0.5-0.4,0.7c-0.3,0.1-0.5-0.1-0.6-0.4c0-0.3,0.1-0.5,0.4-0.7C-12.2,19-12,19.2-11.9,19.4L-11.9,19.4z
						 M49.5,22.9c-0.4-0.7-0.9-1.4-1.1-2.2c0-0.6,0.1-1.1,0.3-1.6c0.2-0.1,0.3,0,0.4,0.2c0,0.3,0.1,0.7,0.4,0.8
						c0.4,0.8,0.4,1.7,0.1,2.6L49.5,22.9z M52.8,19.7c0,0.3-0.1,0.6-0.4,0.7c-0.3,0.1-0.5,0-0.6-0.3c-0.1-0.3,0.1-0.5,0.3-0.7
						C52.5,19.2,52.8,19.4,52.8,19.7L52.8,19.7z M-11.5,20.9c-0.1-0.2-0.1-0.4,0-0.6c0.1-0.1,0.3-0.1,0.4-0.2
						c0.2,0.1,0.4,0.2,0.5,0.5c0,0.2-0.2,0.4-0.4,0.5C-11.2,21.2-11.4,20.9-11.5,20.9L-11.5,20.9z M-10.1,20
						c0.3-0.1,0.5,0.1,0.6,0.4c0.1,0.3-0.2,0.4-0.3,0.5c-0.3,0.1-0.5-0.1-0.6-0.3C-10.4,20.3-10.2,20.2-10.1,20L-10.1,20z
						 M51.4,22.9c-0.1,0.1-0.4,0.3-0.6,0.4c-0.1-0.5,0.4-1,0.7-1.5c0.6-0.7,1.3-1.2,2.1-1.4c0,0.4-0.6,0.7-0.6,1
						C52.7,22.1,52.1,22.6,51.4,22.9L51.4,22.9z M-13,20.6c0.1-0.3,0.4-0.1,0.6-0.1c0.4,0.4,0.9,0.4,1.3,0.9
						c0.4,0.4,0.6,0.9,1.1,1.3c0,0.1-0.1,0.3-0.2,0.3C-11.5,22.9-12.4,21.6-13,20.6L-13,20.6z M53.8,21.8H54c-0.1,1.2-0.6,2.4-1.6,3
						c-0.3,0.1-0.6,0.4-0.9,0.2C52,23.8,52.8,22.8,53.8,21.8L53.8,21.8z M47.9,23c0-0.3,0.1-0.5,0.4-0.6c0.1-0.1,0.2-0.1,0.3-0.1
						c0.1,0.1,0.2,0.2,0.4,0.3c0.1,0.4-0.1,0.7-0.4,0.8C48.3,23.4,48,23.2,47.9,23L47.9,23z M-12.3,24.2c-0.9-0.3-1.5-1.1-2.4-1.4
						c0-0.3,0.4-0.2,0.6-0.3c0.6-0.1,1.1,0.2,1.6,0.4c0.5,0.4,0.9,0.8,1.4,1.3C-11.5,24.4-11.9,24.2-12.3,24.2L-12.3,24.2z M-6,23.7
						c-0.1-0.3,0.1-0.5,0.4-0.6c0.2,0.1,0.5,0.1,0.5,0.3c0,0.3-0.1,0.5-0.4,0.6C-5.7,23.9-5.8,23.9-6,23.7L-6,23.7z M-7.5,23.5
						c0.2-0.2,0.5-0.4,0.7-0.1c0.1,0.1,0.2,0.4,0.1,0.6c-0.2,0.1-0.5,0.3-0.6,0.1C-7.5,23.9-7.6,23.7-7.5,23.5L-7.5,23.5z
						 M49.3,24.1c0.1,0.3-0.1,0.5-0.4,0.6c-0.3-0.1-0.6-0.1-0.6-0.5c0-0.2,0.2-0.4,0.4-0.4C48.9,23.7,49.1,24,49.3,24.1L49.3,24.1z
						 M50.2,23.9c0.2-0.1,0.3,0.1,0.4,0.2c0.1,0.1,0.3,0.4,0.1,0.5c-0.1,0.1-0.2,0.1-0.3,0.2c-0.3,0.1-0.6-0.1-0.6-0.3
						C49.7,24.1,50,24,50.2,23.9L50.2,23.9z M-13.9,24c0.3,0,0.6,0.1,0.6,0.4c-0.1,0.3-0.4,0.4-0.7,0.4c-0.1-0.1-0.1-0.2-0.2-0.4
						C-14.2,24.2-14.1,24-13.9,24L-13.9,24z M-5.2,24.4c0.3-0.1,0.6,0.1,0.7,0.4c0,0.2-0.3,0.4-0.4,0.5c-0.3,0-0.4-0.2-0.6-0.4
						C-5.5,24.8-5.5,24.5-5.2,24.4L-5.2,24.4z M-7,24.8c0.1-0.1,0.2-0.3,0.4-0.3c0.2-0.1,0.3,0.1,0.5,0.2C-6,24.8-6,25-6,25.1
						c-0.1,0.1-0.4,0.4-0.6,0.2C-6.8,25.1-7,25.1-7,24.8L-7,24.8z M54.5,25c0,0.2-0.2,0.4-0.4,0.5c-0.2,0.1-0.4,0-0.6-0.1
						c-0.1-0.1-0.1-0.3-0.1-0.4c0.1-0.2,0.3-0.3,0.5-0.4C54.3,24.6,54.5,24.8,54.5,25L54.5,25z M55.3,25.4c0-0.2,0.1-0.4,0.2-0.4
						c0.3-0.1,0.6,0,0.6,0.3c-0.1,0.2-0.3,0.4-0.5,0.5C55.6,25.7,55.3,25.7,55.3,25.4L55.3,25.4z M-10.3,25.6
						c0.1,0.3-0.1,0.5-0.3,0.7c-0.2,0.1-0.4,0-0.5-0.1c-0.1-0.1-0.2-0.4-0.1-0.5c0.1-0.2,0.3-0.2,0.4-0.3
						C-10.6,25.3-10.5,25.4-10.3,25.6L-10.3,25.6z M-9.7,26.3c-0.2-0.1-0.4-0.4-0.2-0.7c0.2-0.4,0.8-0.2,0.9,0.1
						c0.1,0.2-0.1,0.3-0.2,0.4C-9.4,26.4-9.6,26.5-9.7,26.3L-9.7,26.3z M53,25.7c0,0.3-0.2,0.4-0.4,0.6c-0.2,0.1-0.5-0.1-0.5-0.3
						c0-0.2,0.1-0.4,0.3-0.5C52.7,25.4,52.9,25.5,53,25.7L53,25.7z M54.8,25.8c0.2,0.1,0.2,0.2,0.4,0.3c-0.1,0.2,0,0.5-0.3,0.7
						c-0.2,0.1-0.5,0-0.6-0.1c-0.1-0.1-0.2-0.4-0.1-0.6C54.3,26,54.5,25.7,54.8,25.8L54.8,25.8z M-11.3,26.7
						c0.1,0.2-0.1,0.3-0.2,0.4c-0.2,0.1-0.4,0-0.5-0.1c-0.2-0.1-0.1-0.4-0.1-0.5C-11.9,26-11.4,26.4-11.3,26.7L-11.3,26.7z
						 M51.3,26.3c0.8,0.1,1.4,0.8,2.2,0.9c0.1,0,0.1,0.2,0,0.2c-0.6,0.3-1.6,0.4-2.1-0.1c-0.3-0.3-0.7-0.4-1.1-0.6
						C50.5,26.4,51,26.5,51.3,26.3L51.3,26.3z M-10.1,27c0.1,0.2-0.1,0.3-0.1,0.4c-0.1,0.1-0.3,0.1-0.4,0.1
						c-0.2-0.1-0.4-0.4-0.2-0.7C-10.5,26.5-10.2,26.7-10.1,27L-10.1,27z M-8.5,27.7c-0.1-0.2-0.4-0.4-0.1-0.6
						c0.2-0.4,0.7-0.2,0.9,0.1c0.1,0.2-0.1,0.4-0.3,0.6C-8.2,27.9-8.4,27.7-8.5,27.7L-8.5,27.7z M18.5,30.8c0.1-0.1,0.1-0.1,0.2-0.1
						c0-0.1-0.2-0.3-0.1-0.4c0.9-0.1-0.4-1,0.4-1c0.6,0.7,1.6,0.4,2.1,1.1c0.1,0.1,0.2,0.2,0.4,0.4c-0.1-0.7-0.4-1.3-0.5-2
						c-0.1-0.4,0.1-0.7,0.3-0.9c0.4-0.4,0.8,0.1,1.1,0.4c-0.1,0.5-0.9-0.1-0.8,0.7c0.1,0.5,0.2,1.1,0.5,1.6c0.2,0.4,0.1,1,0.1,1.3
						c-0.2,0.4-0.6,0.7-1,0.9c-0.7-0.1-1.9,0.4-2.1-0.6C18.8,31.7,18.5,31.3,18.5,30.8L18.5,30.8z M-6.2,28.4
						C-6.3,28.1-6.2,28-6,27.9c0.2,0,0.4,0.1,0.5,0.3c0.1,0.3-0.1,0.4-0.3,0.6C-6,28.8-6.2,28.5-6.2,28.4L-6.2,28.4z M10.6,28.4
						c0.3,1,0.2,2.1-0.3,3c0,0.2,0.1,0.6-0.2,0.5c-0.7-1-0.2-2.4,0.1-3.5C10.1,28.2,10.5,28.1,10.6,28.4L10.6,28.4z M32.7,31.6
						c-0.3-0.6-0.5-1.3-0.6-1.9c0.1-0.5,0.3-0.9,0.3-1.4c0.4-0.1,0.4,0.4,0.4,0.6c0.4,0.7,0.4,1.8,0.1,2.5L32.7,31.6z M-3.7,29
						c0.1,0.1,0.2,0.1,0.2,0.2c-0.1,0.3-0.6,0.4-0.9,0.6c-0.6,0.5-1.5,0.6-2.3,0.4C-6,29.3-5,28.8-3.7,29L-3.7,29z M-12.1,33.2
						c-0.2,0.1-0.4-0.1-0.7-0.1c-1-0.4-1.6-1.6-1.6-2.8c0-0.1,0.1-0.1,0.3-0.1c0.9,0.7,1.2,1.7,1.8,2.7C-12.2,32.9-12,33-12.1,33.2
						L-12.1,33.2z M30.9,31.3c-0.1-0.2,0.1-0.3,0.1-0.4c0.2-0.2,0.6-0.1,0.7,0.1c0,0.3,0,0.5-0.2,0.6C31.2,31.7,31,31.6,30.9,31.3
						L30.9,31.3z M52.1,34.3c0.9-1,1.4-2.5,2.7-2.8c0.2-0.1,0.5-0.2,0.7-0.1c-0.9,1.2-1.7,2.6-3.1,3C52.3,34.5,52.2,34.5,52.1,34.3
						L52.1,34.3z M-16.3,32.8c-0.1-0.3,0.1-0.5,0.4-0.6c0.2,0.1,0.4,0.2,0.5,0.4c-0.1,0.1,0,0.4-0.3,0.4
						C-15.9,33.2-16.1,33-16.3,32.8L-16.3,32.8z M-11.1,32.4c1.1,0.3,2.3,0.1,3.2,0.7c0.1,0.2-0.2,0.2-0.3,0.3c-1.1,0.4-2.2,0-3-0.8
						C-11.2,32.5-11.2,32.4-11.1,32.4L-11.1,32.4z M-14.5,32.5c0.2,0,0.4,0.1,0.5,0.2c0.1,0.1,0.1,0.3,0.1,0.4
						c-0.1,0.2-0.4,0.3-0.6,0.2c-0.1-0.1-0.2-0.2-0.4-0.4C-14.9,32.8-14.7,32.6-14.5,32.5L-14.5,32.5z M10.3,32.9
						c0.1,0.2-0.1,0.4-0.3,0.5c-0.2,0.1-0.4-0.1-0.6-0.2c-0.1-0.2,0-0.4,0.2-0.5C9.9,32.6,10.3,32.6,10.3,32.9L10.3,32.9z
						 M56.2,32.7c0.1,0.1,0.2,0.1,0.4,0.3c0.1,0.3-0.1,0.4-0.4,0.6c-0.1,0.1-0.4,0-0.5-0.1c0-0.1-0.2-0.2-0.1-0.4
						C55.7,32.8,55.9,32.7,56.2,32.7L56.2,32.7z M57.3,33.2c0-0.2,0.2-0.4,0.4-0.4c0.3-0.1,0.4,0.1,0.6,0.1c0.1,0.2,0,0.4-0.1,0.6
						c-0.1,0.2-0.3,0.2-0.5,0.1C57.5,33.5,57.3,33.4,57.3,33.2L57.3,33.2z M-17.5,33.8c0.1-0.2,0.2-0.4,0.5-0.5
						c0.2,0.1,0.4,0.1,0.5,0.4c0,0.2-0.1,0.3-0.2,0.4c-0.1,0.1-0.3,0.1-0.4,0.1C-17.3,34.2-17.4,34-17.5,33.8L-17.5,33.8z
						 M38.2,33.6c0.1,0.1,0,0.2,0,0.4c-0.1,0.2-0.4,0.4-0.6,0.3c-0.1-0.1-0.4-0.3-0.3-0.6C37.6,33.4,38,33.3,38.2,33.6L38.2,33.6z
						 M-12.3,34.1c-0.1,0.2-0.1,0.4-0.4,0.4c-0.2,0-0.3-0.2-0.4-0.3c0-0.2,0-0.5,0.2-0.6C-12.6,33.4-12.3,33.7-12.3,34.1L-12.3,34.1
						z M-15.3,33.7c0.2,0,0.4,0.3,0.5,0.4c0.1,0.3-0.1,0.4-0.3,0.6c-0.3,0.1-0.6-0.1-0.7-0.4C-15.8,34.1-15.6,33.8-15.3,33.7
						L-15.3,33.7z M39,34.3c0.1-0.2,0.1-0.5,0.5-0.6c0.2,0,0.4,0.1,0.5,0.3c0.1,0.3,0,0.5-0.3,0.7C39.3,34.8,39.1,34.5,39,34.3
						L39,34.3z M-14.1,34.7c-0.1-0.1-0.3-0.2-0.4-0.4c0-0.3,0.1-0.4,0.4-0.5c0.3,0,0.4,0.1,0.5,0.4c0.1,0.2-0.1,0.3-0.1,0.4
						C-13.9,34.6-14,34.7-14.1,34.7L-14.1,34.7z M55.1,34.4c-0.1,0.2-0.2,0.3-0.4,0.4c-0.2,0.1-0.4-0.1-0.5-0.2
						c-0.1-0.1-0.1-0.4,0-0.5C54.4,33.6,55.1,33.9,55.1,34.4L55.1,34.4z M56.5,34.1c0.3-0.1,0.6,0.1,0.6,0.4
						C57,34.8,56.8,35,56.5,35c-0.2-0.1-0.5-0.3-0.3-0.6C56.3,34.2,56.3,34.2,56.5,34.1L56.5,34.1z M44.2,34.4
						c0.2,0,0.4,0.1,0.5,0.3c0.1,0.4-0.2,0.4-0.4,0.6c-0.2,0-0.4-0.1-0.5-0.2C43.8,34.8,43.9,34.5,44.2,34.4L44.2,34.4z M37.6,35
						c0.1,0.1,0.1,0.2,0.1,0.3c-0.1,0.1-0.4,0.4-0.6,0.2c-0.2-0.1-0.3-0.3-0.3-0.5C36.9,34.7,37.5,34.7,37.6,35L37.6,35z M39,35.2
						c0,0.2,0,0.3-0.2,0.4c-0.2,0.2-0.4,0-0.6-0.1c-0.1-0.1-0.1-0.3,0-0.4c0.1-0.1,0.2-0.2,0.4-0.2C38.7,35,39,35,39,35.2L39,35.2z
						 M-5.8,35.9C-6.1,35.8-6,35.4-6,35.2c0.1-0.1,0.1-0.2,0.4-0.2c0.2,0,0.4,0.1,0.5,0.3c0.1,0.1,0,0.4-0.1,0.5
						C-5.2,35.9-5.5,36.1-5.8,35.9L-5.8,35.9z M46.5,35.4c0-0.1,0.1-0.3,0.2-0.4c0.4-0.1,0.6,0.1,0.8,0.3c0.1,0.3-0.2,0.4-0.4,0.4
						C46.8,35.9,46.7,35.6,46.5,35.4L46.5,35.4z M46.1,35.3c0.1,0.3-0.2,0.4-0.3,0.5c-0.2,0.1-0.4,0.1-0.6-0.1
						c-0.1-0.1-0.1-0.2-0.1-0.4c0.1-0.1,0.2-0.3,0.4-0.4C45.8,35,46,35.1,46.1,35.3L46.1,35.3z M57.3,35.9c-1.1,0.7-2.5,0.1-3.5-0.2
						c0.1-0.4,0.5-0.2,0.6-0.4c1.1-0.7,2.3,0.1,3.4,0.2l0.1,0.1C57.9,36.1,57.4,35.9,57.3,35.9L57.3,35.9z M-16.9,36
						c0.9-0.7,2.2-0.9,3.5-0.7l0.1,0.1l-0.1,0.2c-0.9,0.6-2.2,1-3.4,0.6L-16.9,36z M49.9,36.1c-0.3,0.1-0.6,0-0.6-0.3
						c-0.1-0.2,0.1-0.4,0.4-0.5c0.2,0,0.5,0,0.6,0.3C50.2,35.8,50,35.9,49.9,36.1L49.9,36.1z M-9.6,35.9c-0.1-0.3,0.1-0.4,0.3-0.5
						c0.3-0.1,0.6,0.1,0.7,0.3c-0.1,0.2-0.1,0.4-0.3,0.5C-9.2,36.3-9.5,36.1-9.6,35.9L-9.6,35.9z M-11.5,35.6
						c0.1-0.1,0.2-0.2,0.4-0.3c0.2,0.1,0.5,0.1,0.5,0.4c0.1,0.2-0.1,0.3-0.1,0.4c-0.1,0.1-0.4,0.1-0.5,0.1
						C-11.3,36.2-11.5,35.9-11.5,35.6L-11.5,35.6z M51.5,36.9c-0.2,0-0.4-0.1-0.5-0.3c-0.1-0.1-0.1-0.4,0.1-0.5
						c0.1-0.1,0.2-0.1,0.4-0.1c0.2,0,0.4,0.2,0.5,0.4C52,36.7,51.8,36.8,51.5,36.9L51.5,36.9z M-15,38.5l-0.1-0.2
						c0.8-1,1.6-1.8,2.6-2.3l0.1,0.1c0.1,0.2-0.1,0.3-0.1,0.4c-0.1,0.4-0.4,0.7-0.6,1.2C-13.6,38.4-14.3,38.4-15,38.5L-15,38.5z
						 M49.8,36.9c-0.1-0.3,0.2-0.4,0.4-0.5c0.3-0.1,0.5,0.1,0.6,0.4c0.1,0.3-0.2,0.4-0.4,0.5C50,37.2,49.9,37,49.8,36.9L49.8,36.9z
						 M-9.5,36.7c0,0.1,0,0.1,0.1,0.1c0,0.3-0.2,0.4-0.4,0.5c-0.2,0-0.4-0.1-0.6-0.3c-0.1-0.2,0-0.5,0.3-0.6
						C-9.8,36.5-9.5,36.5-9.5,36.7L-9.5,36.7z M55.8,38.2c0.2,0.1,0.4,0.3,0.4,0.5c-0.1,0.1-0.2,0.1-0.3,0c-0.8-0.3-1.6-0.9-1.9-1.7
						c-0.1-0.2-0.6-0.4-0.3-0.7c0.8-0.1,1.4,0.6,1.8,1c0.3,0,0.3-0.4,0.6-0.4c0.3-0.1,0.5,0.1,0.6,0.3c0.1,0.3-0.1,0.5-0.4,0.6
						C56.2,38.2,55.8,37.9,55.8,38.2L55.8,38.2z M57.2,37.3C57,37.2,56.9,37,57,36.8c0.1-0.1,0.2-0.3,0.4-0.4
						c0.2-0.1,0.4,0.1,0.6,0.2c0.1,0.1,0.1,0.4,0,0.5C57.8,37.5,57.4,37.3,57.2,37.3L57.2,37.3z M48,37.4c0.2,0.3,0.4,0.4,0.5,0.7
						c0.2,0.3,0.5,0.7,0.6,1.1c-0.1,0.1-0.2,0.1-0.2,0.1c-0.9-0.5-2-1.1-2.4-2.1c-0.1-0.1-0.3-0.2-0.3-0.4
						C46.9,36.5,47.5,37,48,37.4L48,37.4z M-11.4,36.7c0.2,0,0.4,0.2,0.5,0.3c0.1,0.2-0.1,0.4-0.2,0.5c-0.3,0.1-0.4-0.1-0.6-0.2
						C-11.9,37.1-11.6,36.9-11.4,36.7L-11.4,36.7z M51.8,37.7c0,0.1-0.2,0.3-0.3,0.4c-0.2,0-0.4,0.1-0.6-0.1c-0.1-0.1-0.2-0.4,0-0.5
						C51.2,37.2,51.6,37.5,51.8,37.7L51.8,37.7z M57.3,38.5c-0.1-0.1,0-0.3,0-0.5c0.2-0.1,0.4-0.3,0.6-0.2c0.1,0.1,0.2,0.1,0.3,0.3
						c0.1,0.3-0.1,0.5-0.4,0.7C57.6,38.9,57.4,38.7,57.3,38.5L57.3,38.5z M39.5,42.3c-0.8,0.4-1.8,0.4-2.7,0.4v-0.1
						c0.9-0.8,2.3-1.1,3.5-0.7C40.2,42.1,39.7,42.1,39.5,42.3L39.5,42.3z M1.5,43.2c-0.1-0.3,0.1-0.4,0.4-0.6c0.2,0,0.4,0.2,0.5,0.4
						c0,0.2-0.1,0.4-0.4,0.4C1.8,43.5,1.6,43.3,1.5,43.2L1.5,43.2z M38.7,43.3c0.2-0.5,0.9-0.5,1.1,0c-0.1,0.2-0.1,0.5-0.4,0.6
						c-0.2,0.1-0.4-0.1-0.6-0.2C38.7,43.6,38.8,43.4,38.7,43.3L38.7,43.3z M45,43.4c-0.6,0.4-1.4,1-2.2,1h-1.4l-0.1-0.1
						C42,43.2,43.6,43.2,45,43.4L45,43.4z M-4.8,44.1c0,0.2-0.1,0.4-0.4,0.5s-0.4-0.1-0.6-0.2c-0.1-0.2,0-0.5,0.2-0.6
						C-5.2,43.5-4.9,43.8-4.8,44.1L-4.8,44.1z M-3.5,44.4c0.1,0.1-0.1,0.2-0.1,0.4c-0.1,0.1-0.4,0.1-0.5,0c-0.2-0.1-0.2-0.3-0.1-0.4
						c0.1-0.1,0.2-0.1,0.3-0.2C-3.7,44.1-3.6,44.1-3.5,44.4L-3.5,44.4z M-16.2,44.6c0.1-0.3,0.4,0,0.5,0c0.1,0.1,0.4,0.2,0.6,0.3
						c0.9,0.5,1.1,1.4,1.7,2.2c-0.3,0.3-0.6-0.1-0.9-0.2C-15.3,46.3-15.3,45.2-16.2,44.6L-16.2,44.6z M60.4,35.4
						c-0.6,0.1-1.1,0.5-1.4,1.1c-0.1,0.6,0.1,1.1,0.5,1.5c0.2,0.1,0.4,0.1,0.5-0.1c0.1-0.4-0.2-0.4-0.3-0.6c-0.1-0.4,0-0.7,0.3-1
						c0.3-0.3,0.7-0.1,1-0.1c0.3,0.2,0.6,0.4,0.8,0.8c0.1,0.4,0.1,1,0,1.4c-0.3,0.7-0.9,1.2-1.6,1.3C58,40,34.3,39.9,34.3,39.9
						c-2.8,0.3-5.9-0.5-8.4,1c-1.1,0.5-1.6,1.8-1.9,2.9c-0.7,0.7-1.4,1.4-2,2.1l-0.1-0.1c0.1-0.7,0.4-1.3,0.6-1.8
						c0.4-0.5,0.4-1.3,0.6-1.8c1-1.6,1.9-3.3,3.4-4.5c0.6-0.9,1.8-0.7,2.8-0.7c1.1,0.5,2.3,0.7,3.6,0.5c0.1-0.1,0.1-0.1,0.1-0.2
						c-0.4-0.4-0.9-0.5-1.4-0.8c-1.1-0.5-2,0.1-3.1,0.1c-0.1-0.1-0.1-0.1-0.1-0.1c1-0.7,2.1-1.3,3.2-1.8c0.9-0.5,1.9-0.8,2.9-1.2
						c0.4,0,0.8-0.4,1.1-0.1c-0.8,1.6-1.5,3.3-2.6,4.6c-0.4,0-0.6,0.4-1,0.4c-0.2,0.3-0.6,0.1-0.9,0.2c-0.8,0.4-1.9,0.1-2.5,0.9
						c0.1,0.1,0.1,0.1,0.2,0.1c1.6,0,3.4,0.1,5.1,0.1c0.2-0.1,0.4-0.3,0.4-0.5c-0.2-0.4,0.1-0.9,0.3-1.2c0.1-0.7,0.6-1,0.7-1.7
						c0.6-1.1,1.1-2.2,1.8-3.3c0.1,0,0.1,0.1,0.2,0.1c1.1-0.4,2.6,0,4-0.1l0.2,0.1c0.1,1.3-0.1,2.7-0.2,3.9
						c-0.4,1.6-2.2,1.4-3.4,1.8c-0.3,0.2-0.9,0.1-0.9,0.7c1.5,0.3,3.3,0.1,4.9,0.1c0.3-0.1,0.3-0.4,0.4-0.6c0.1-0.4,0.4-0.7,0.3-1
						c-0.3-0.4,0-1-0.1-1.5c0.1-0.1,0.1-0.3,0-0.5c0.2-0.8,0.1-1.7,0.3-2.5c0.5,0.1,0.6,0.6,1.1,0.7c0.3-0.4-0.3-0.5-0.4-0.8
						c0.6-0.1,1.2,0,1.7,0.3L45,33.8c-0.1,0.3,0.1,0.5,0.3,0.6c0.2,0.1,0.3-0.1,0.4-0.1c0.4-0.2,0-0.5,0.1-0.7
						c1.9,0.4,3.8,0.8,5.5,1.6c0.5,0.1,0.9,0.5,1.5,0.5c-0.6-0.5-1.3-0.8-2-1.1c-0.4-0.3-1.1-0.3-1.4-0.7c0.1-0.1,0.3-0.1,0.4-0.2
						c0.9-0.1,1.6-0.8,2.3-1.5c0.1-0.1,0.4-0.1,0.3-0.3c-0.2-0.3-0.6,0.1-0.9,0.1c-1.1,0.2-1.6,1.6-2.6,1.8c-1.4-0.3-2.6-0.7-4-1
						c-0.6-0.1-1.4-0.1-1.9-0.4c0-0.5,0.1-1,0.2-1.5c0.1-0.1,0.1-0.4,0.1-0.6c0.1-0.1,0.1-0.2,0.3-0.3l0.6-0.2
						c0.6-0.1,1.4-0.1,2.1,0c0.4,0.2,0.9,0.2,1.3,0.3c0.2-0.1,0.4-0.1,0.6-0.1c0.9-0.4,0.3-1.5,0.4-2.2c0.7-0.7,1.4-1.4,2-2.2
						c0-0.2-0.1-0.4-0.3-0.5c-0.2-0.1-0.4-0.1-0.5,0.1c-0.3,0.2,0,0.5,0,0.8c-0.3,0.4-0.8,0.8-1.2,1c0,0-0.1,0-0.2,0.1L48,26.7
						c-0.1-0.1-0.1-0.4-0.2-0.5c-0.1-0.2-0.3-0.5-0.4-0.7c-0.4-1.2-1.3-1.8-2-2.8c-1.4-1.8-3.4-2.8-5.5-3.5c-2.1-0.7-4.1,0.2-6,0.9
						c-0.6-0.1-0.9-0.6-1-1.1c-0.1-1,0.1-2,0.5-2.9c0.1-0.7,0.5-1.2,0.7-1.8c0.5-1.5,0.9-3,1.1-4.7c0.1-1-0.6-1.7-1.4-2.1
						c-0.5-0.1-1.1-0.1-1.4,0.3c-0.4,0.7-1.1,1.2-1.7,1.6c-0.1,0.4,0.5,0.1,0.6,0.3c0.6,0.1,1.2-0.1,1.7,0.3c0.1,1.1-0.6,2-1.1,2.8
						c-0.9,1.3-1.8,2.7-2.4,4.2v-1.4H17.2c-0.6-0.2-1.1-0.9-1.8-0.9c-1.4-0.6-2.4,1-3.9,0.8c-0.2,0.1-0.1,0.3-0.2,0.4
						c-0.1,0.1-0.2,0-0.3,0c-0.1-0.7-0.3-1.3-0.4-1.8c-0.1-0.3-0.1-0.7-0.2-0.9c-0.9-2.4,2-0.6,2.6-1.9c0.5-1.2-0.9-1.3-1.4-2.1V8.7
						c-0.4-0.4-0.9-0.6-1.1-1.1c0.2-0.7,0.3-1.4,0.1-2.1c0-0.1-0.1-0.4-0.4-0.3C9.6,5.8,9.3,6.4,8.8,7.1C8.3,6.7,7.8,6.2,7.3,5.9
						C6.9,5.8,6.5,5.5,6.1,5.6C6,5.8,6.1,5.9,6.1,6c0,1,0.6,1.9,1.3,2.7L7.5,9C7,10.1,7.1,11.4,7,12.6c-1.1,3.1-3.1,6.1-5.6,8.2
						c-1.5,1.7-3.2,3.4-3.5,5.8c-0.1,0.4,0.1,0.8-0.2,1.1c-0.9-0.3-1.7-0.7-2.4-1.3C-6,25.4-7.7,25.6-8.5,24
						c-0.3-0.6,0.1-1.3,0.4-1.7c0.9-0.9,0.8-2.4,0.3-3.5C-8,18.9-8,18.9-8.1,19c-0.1,1.6-1.3,2.7-0.9,4.4c0.1,0.5,0.4,0.8,0.5,1.3
						c-0.2-0.1-0.4-0.1-0.6-0.1c-0.6-0.1-1.1-0.3-1.7-0.2c-1.2,0.6-2.9-0.1-3.8,1c-0.1,0-0.4,0.1-0.3,0.3c0.6,0,1.1,0.1,1.7,0.1
						c0.9,0.1,1.5-0.6,2.1-1h0.1c0.3-0.3,0.7-0.1,1.1-0.1c1.6,0.2,2.9,1,4.3,1.8v0.1c-0.5,0.2-1.1,0.4-1.6,0.7
						c-0.6,0.4-1.3,1-1.4,1.8c-0.4,0.7,0.1,1.3,0.4,1.8c0,0.3,0.1,0.6,0.3,0.7c0.9-0.9,0.1-2.1,0.2-3.1c0.2-0.8,0.9-1.2,1.7-1.4
						c1.5-0.7,2.6,0.6,3.7,1.3c0,1.3,0.1,2.4-0.1,3.6c-0.4,0.1-0.9,0.2-1.2,0.2c-2.1,0.1-3.6,1.3-5.5,2c-0.9,0.3-1.8,0.3-2.6,0.6
						c0.6,0.2,1.4-0.1,2-0.1c2.6-0.4,4.5-2.4,7.2-2.1l0.1,0.1c-0.3,0.7-0.7,1.3-1.2,1.8c-0.1-0.3-0.1-0.5-0.4-0.7
						c-0.2-0.1-0.4,0-0.6,0.2c-0.1,0.1-0.1,0.3,0,0.4C-4.5,34.9-4.2,35-4,35c-0.1,0.2-0.4,0.4-0.5,0.6c-0.7,1.3-2.2,0.7-3.1,1.6
						c-0.1,0.2-0.6,0.3-0.4,0.6c1,0.1,1.9-0.1,2.6-0.7c0.9-1.1,2-2.1,2.9-3.3c0.1,0.9-0.1,1.8-0.6,2.4c-0.2-0.1-0.4-0.3-0.7-0.4
						c-0.3,0.1-0.4,0.3-0.5,0.5c0.1,0.2,0.2,0.4,0.4,0.5c-0.9,0.7-2,0.7-3,1c-1.9,0.2-3.7,0.4-5.7,0.4c-0.9-0.1-1.9,0.3-2.8,0
						c-1,0.2-2.1-0.1-2.9,0.4c-0.1,0.1,0,0.3,0,0.4c1.2,0.8,2.9,0.1,4.2,0.4h10.2c0.8,0,1.5-0.1,2.1-0.4c1.4-0.8,2.1-2.2,2.7-3.5
						c0.3-0.5,0.4-1,0.6-1.6c0.3-0.9,1.1-1.6,1.9-1.6c0.1,1.4-0.1,2.8-0.4,4.1c-0.1,0.9-0.7,1.7-0.4,2.6c0.1,0.4,0.5,0.4,0.9,0.5
						c3.1-0.1,6.3-0.2,9.6,0.1c0.6,0.1,1.1,0.3,1.8,0.3c0.1-0.1,0.2-0.1,0.1-0.3c-0.1-0.3-0.3-0.7-0.6-0.7c-0.1-0.1-0.3-0.1-0.4-0.2
						c-1.6-1-3.6-0.4-5.6-0.4c-1,0.1-2,0.3-2.9-0.3c-0.4-0.5-0.1-2-0.1-2c0-0.3,0.4-1.7,0.8-3c0.8,0.2,2.7,1.5,2.7,1.5
						c0.9,0.4,1.7,0.9,2.6,1.4c3.5,2,5.9,5.4,7.4,9.1c0,0.3,0.3,0.6,0.1,0.9c-0.6-0.9-1.4-1.3-2-2.1c-0.2-1.3-0.9-2.5-2-3
						c-0.4-0.6-1.2-0.7-1.9-0.8l-9.4-0.1c-7.7-0.1-14.7,0.2-22.4,0.1c-1.1-0.1-2.4-0.5-2.6-1.6c-0.2-0.4-0.2-1.1,0-1.5
						c0.3-0.5,0.8-0.7,1.4-0.7c0.4,0.1,0.7,0.4,0.9,0.7c0,0.4-0.3,0.7-0.4,1c0,0.1,0.1,0.3,0.3,0.2c0.4-0.1,0.6-0.5,0.6-0.9
						c0-0.2,0.1-0.4-0.1-0.6c-0.1-0.6-0.7-1-1.2-1.1c-0.6-0.1-1.4,0.1-1.8,0.6c-0.6,0.5-0.6,1.6-0.4,2.3c0.4,1.2,1.6,2,2.8,2.1
						l25.3,0.1c2.5,0.1,5.2-0.3,7.7,0.2c0.9,0.3,1.9,1,2.1,2.1c0,0.1-0.1,0-0.2,0c-2.1-1.4-4.8-1.9-7.4-1.6c-1.1-0.1-2,0.4-2.9,0.6
						C5,42,4.6,41.8,4.2,41.5c-0.9-0.9-2.6-0.8-3.8-0.5v0.2c1.3-0.1,2,1,3.1,1.2c0.3,0.1,0.5-0.2,0.7,0c-1.2,0.6-2.4,1.3-3.6,1.7
						c-0.4-0.1-0.6-0.4-0.9-0.7c-0.5-0.6-1.4-0.3-2.1-0.4C-2.6,43.1-2.8,43-3,43c0.2,0.4,0.6,0.7,1.1,0.9c0.6,0.3,1.4,0,2,0.4
						c-0.1,0.2-0.4,0.2-0.6,0.4c-1.2,0.5-2.2,1.6-3.6,1.6c-1.4,0.1-2.9-0.3-3.9-1.3c-0.4-1-1.5-1.6-2.6-1.6
						c-0.1,0.1-0.2,0.1-0.1,0.2c0.6,0.4,1,1,1.6,1.5c0.4,0.4,1.1,0,1.4,0.5c0.5,0.4,1.1,0.7,1.7,0.7c0.4,0.2,0.9,0.3,1.4,0.4
						l-0.2,0.1c-2.4,0.8-5.1,0.9-7.7,0.8c-0.8,0-1.5-0.3-2.3-0.2c0.1,0.1,0.4,0.3,0.6,0.4c-0.2,0.1-0.4,0.2-0.7,0.2
						c-0.3,0.1-0.6,0.1-1,0.3c-0.4,0-0.8,0.1-1.1,0.3c-0.4,0.5-0.9,1-1.5,1.3c0,0.1,0,0.3,0.1,0.3c0.5-0.2,1.1-0.1,1.6-0.3
						c0.9-0.1,1.4-1,2-1.5c0.7-0.6,1.8-0.4,2.6-0.3c0.5,0.1-0.1,0.4,0.1,0.7c0.2,0.2,0.4,0.4,0.6,0.3c0.1-0.1,0.1-0.1,0.2-0.1
						c0.1-0.2,0.1-0.4,0-0.7c0.4-0.2,0.9,0,1.2-0.1c1,0,2-0.2,2.9-0.3c0.1,0,0.4-0.2,0.5,0C-6.6,48-6.9,48-6.7,48.3
						c0.1,0.2,0.3,0.4,0.5,0.4c0.3-0.1,0.5-0.3,0.4-0.7c-0.1-0.2-0.3-0.2-0.4-0.3c0.6-0.3,1.1-0.4,1.7-0.6c0.4-0.1,0.8-0.2,1.1-0.4
						c0.4,0,0.6-0.4,0.9-0.2c-0.1,0.4-0.3,0.9-0.6,1.3c-0.4,1.4-0.7,3.3,0,4.7c0.1,0,0.1,0,0.1-0.1c-0.6-1.4-0.2-3.1,0.2-4.4
						c0.4-2.3,2.6-3,4.3-3.8l0.1,0.1c-0.4,1.2-1.1,2.4-1,3.8c0.1,0.2-0.1,0.5,0,0.7c0.4-0.2,0.7-0.8,0.9-1.3
						c0.2-1.2-0.5-2.7,0.7-3.6c2.1-0.9,4.1-2,6.6-2C8.9,42,9.1,41.8,9.1,42c-0.5,0.6-1.3,1.2-1.5,1.9c-0.9,1.2-0.8,3.3-0.4,4.7
						c0.2,0.8-0.5,1.3-0.8,1.9c-0.1,0.2-0.2,0.6-0.4,0.9l0.5,0.1c0.4-0.5,0.9-1.1,0.9-1.8c0.1,0.3,0.3,0.5,0.5,0.5
						c0.2-0.3-0.1-0.5-0.2-0.8c0.4-0.2,0.6,0.3,0.9,0.4c0.6,0.1,1,0.4,1.6,0.4l0.2-0.2c-0.6-0.9-1.7-1.1-2.7-1.1
						c-0.5-0.9-0.5-2-0.5-3.1c0.1-0.6,0.2-1.2,0.5-1.7c0.1-0.4,0.5-0.7,0.7-1c0.5-0.4,1.1-0.8,1.6-0.9h0.1v0.1
						c-0.7,0.6-0.8,1.3-1.2,2.1c-0.4,0.7-0.6,1.6-0.2,2.4c0.1,0.4,0.1,0.9,0.4,1.1c0.4-0.5,0.4-1.1,0.6-1.6
						c-0.1-0.9-0.6-1.7-0.1-2.6c0.3-0.7,0.8-1,1.4-1.2c1.4-0.1,2.6,0.6,3.9,1.2c0.3,0.2,0.7,0.4,0.8,0.7c0,0.7-0.4,1.5-0.9,1.8
						c-0.7,0.4-1.7,0.5-2.4,0c-0.4-0.4-0.6-1.1-0.4-1.6c0.3-0.3,0.6-0.6,1.1-0.4c0.3,0.1,0.5,0.4,0.9,0.2c0.1-0.1,0.2-0.3,0.1-0.4
						c-0.3-0.1-0.4-0.6-0.8-0.6c-0.5-0.1-1.1-0.1-1.4,0.3c-0.6,0.5-0.8,1.2-0.6,1.9c0.2,0.9,0.8,1.5,1.6,1.7
						c1.2,0.3,2.4-0.1,3.2-1.1c0.3-0.4,0.4-0.7,0.6-1.2c1.2,0.8,2.2,2.1,2.6,3.5c0,0.4,0.1,1,0,1.3l0.9,0.1c-0.1-0.2,0-0.4,0.1-0.7
						c0.4-1.8,1.4-3.3,2.6-4.4c0.4-0.3,0.4,0.4,0.4,0.5c0.4,1,1.3,1.8,2.3,2.1c1.1,0.2,2.1-0.1,2.8-1c0.4-0.7,0.8-1.6,0.2-2.3
						c-0.4-0.4-0.9-0.7-1.4-0.7c-0.6,0-1.1,0.5-1.4,1c0,0.2,0,0.4,0.1,0.6c0.1,0,0.3,0,0.4-0.1c0.1-0.4,0.4-0.6,0.7-0.8
						c0.3-0.1,0.6,0,0.9,0.1c0.3,0.2,0.4,0.7,0.4,1c-0.1,0.5-0.4,1-0.9,1.3c-0.8,0.4-1.9,0.2-2.5-0.2c-0.3-0.4-0.5-0.7-0.7-1.2
						c-0.1-0.4-0.2-0.8,0-1.3c1.1-0.7,2.4-1.2,3.7-1.3c0.6,0.1,1,0.5,1.4,0.9c1.2,1.3-0.3,3.1,0.6,4.5c0.3-0.1,0.3-0.5,0.4-0.7
						c0.4-1-0.1-2-0.4-3c-0.3-0.6-0.5-1.1-1-1.6c0.1-0.1,0.2-0.1,0.3-0.1c0.6,0.4,1.1,0.8,1.6,1.4c0.8,1.3,1.1,2.8,1,4.4
						c-0.2,0.8-1.1,1.2-1.7,1.5c-0.3,0.2-0.6,0.5-0.7,0.9c0.3,0.2,0.8,0,1.1-0.1c0.5-0.2,0.8-0.8,1.1-1.1c0.1,0,0,0.1,0.1,0.1
						c0,0.3-0.1,0.7,0.1,0.8c0.1-0.4,0.1-0.9,0.2-1.4c0.4,0.4,0.4,0.9,0.5,1.3c0.2,0.5,0.6,1.1,1.2,1.2c0.1-0.2,0-0.5-0.1-0.7
						c-0.1-0.7-0.6-1-1-1.6c-0.9-1.3-0.5-3.3-1.2-4.8c-0.3-0.8-0.8-1.3-1.4-2l0.1-0.1c1.3,0,2.4,0.4,3.5,0.7
						c1.4,0.7,3.5,0.6,4.2,2.5c0.3,1.1,0.8,2.1,1.5,3l0.1-0.1c0.1-0.3,0.1-0.7,0-1c-0.1-1.3-1.3-1.7-1.9-2.8l0.1-0.1
						c0.6,0.2,1.3,0.4,1.9,0.6c2.1,0.6,3.5,2.7,3.8,4.9c0,1.7-0.3,3.2-0.9,4.7c-0.1,0.2-0.4,0.4-0.2,0.7c0.3-0.2,0.4-0.6,0.5-0.8
						c0.9-1.5,1.3-3.5,0.9-5.5c0-0.4-0.4-0.6-0.2-1c0.1,0.1,0.3,0.2,0.4,0.2c0.1-0.1,0.4-0.1,0.5-0.3c0-0.1,0.1-0.4,0-0.5
						c-0.1-0.2-0.5-0.2-0.8-0.2c-0.1,0.1-0.3,0.4-0.3,0.6c-0.3-0.4-0.5-1-0.9-1.4l0.1-0.1c1.1,0.4,2.2,1,3.4,1.3
						c0.3,0.1,0.6,0.3,0.9,0.3c1,0.4,2.1,0.6,3.2,0.8c0.8-0.1,1.4,0.3,2.2,0.1v-0.1c-0.3-0.4-0.9,0-1.2-0.3
						c-1.8-0.2-3.5-0.7-5.1-1.3c0-0.1,0.1-0.1,0.2-0.1c0.3-0.1,0.4-0.4,0.4-0.7c-0.1-0.2-0.4-0.3-0.6-0.3c-0.1,0.1-0.4,0.3-0.4,0.4
						c0,0.2,0.2,0.4,0.4,0.5c-0.1,0.1-0.1,0-0.2,0c-0.8-0.4-1.6-0.7-2.4-1.1c-0.3-0.1-0.5-0.3-0.8-0.4c-0.6-0.3-1.2-0.6-1.8-0.8
						c-1.6-0.9-3.5-1.4-5.3-2c-0.4-0.1-0.8-0.2-1.1-0.3c-0.6-0.2-1.3-0.4-1.9-0.5c-2.2-0.6-5.1-0.6-7.1,0.6
						c-0.3-0.1-0.5,0.4-0.6,0.1c0.6-1.5,2.1-2,3.6-2c10.4-0.1,20.2-0.2,30.5-0.4c1.2,0,2.4-0.4,3-1.6c0.4-0.7,0.5-1.8,0.2-2.5
						C61.9,35.8,61.2,35.4,60.4,35.4L60.4,35.4z M41.3,31.4l-0.1,0.9h-2.6c0-0.1-0.1-0.1-0.1-0.1c0.9-0.2,1.7-0.8,2.6-1L41.3,31.4z
						 M38.7,30.1c0.2-0.2,0.3-0.4,0.5-0.7c0-0.3-0.1-0.4-0.3-0.6c0.2-0.2,0.5-0.1,0.7-0.2c0.6,0.4,1.4,1,1.4,1.8
						c-1.1,0.4-2.1,1-3.1,1.2C38,31.1,38.3,30.6,38.7,30.1L38.7,30.1z M29.4,23.7c0.9,1.4,1.9,3,3.4,3.6c0.9,0.7,1.9,1.6,3,0.9
						c0.6-0.2,0.6,0.7,0.9,1c0.3,1-0.4,1.7-0.4,2.7c-0.1,0.3-0.4,0.5-0.6,0.6c-0.4,0.1-0.8,0.4-1.2,0.4c-3.4,1.3-6.9,2.8-9.6,5.5
						c0.1-0.3,0.2-0.7,0.3-1.1c-0.1-0.4,0-0.9-0.3-1.2c-0.1-0.1-0.2-0.5-0.2-0.7l3.3-2.1c0.9-0.4,1.4-1.7,1.4-3.1v-8.8V23.7z
						 M28.9,30.2c-0.1,1.1-0.4,2-1.1,2.5l-6.9,4.5h-0.1c-0.1,0.1-0.4,0.2-0.5,0.2c-0.2,0-0.4-0.1-0.6-0.2l-6.8-4.5
						c-0.7-0.5-1.1-1.4-1.1-2.5v-3.6c0.1,0.1,0.1,0.1,0.2,0c0.6-0.4,0.5-1.5,0.5-2.2c0.1-0.8-0.4-1.3-0.6-2v-6.2h2.9
						c0.2,0.1,0.4,0.2,0.6,0.3l0.2-0.3H29v14H28.9z M10.3,20c0.1-0.6,0.3-1.2,0.9-1.6c0.1,0.1,0.1,0.1,0.1,0.2v3
						C11.1,21.1,10,20.6,10.3,20L10.3,20z M15.2,37.9c-2.6-2.1-5.6-3.9-8.7-5.4c0.3-0.8,0.5-1.5,0.6-1.6c0.1-0.4,0.2-0.8,0.1-1.3
						c0.2-0.5,0.1-1.3,0.1-1.8c0.1-0.9,0.5-1.7,0.8-2.5c0.1-0.4,0.3-0.8,0.4-1.3c0.1-0.5,0.2-1,0.5-1.4c0.8,0.5,1.6,0.5,2,1.4V30
						c0,1.5,0.6,2.7,1.4,3.1l2.8,1.8C15.6,36,15,36.8,15.2,37.9L15.2,37.9z M19.2,43.5c-0.9-1.9-2-3.4-3.4-5
						c-0.1-0.2-0.3-0.4-0.1-0.7c0.5-0.5,0.6-1.4,0.4-2.1c-0.1-0.1-0.2-0.3-0.2-0.4l-0.2-0.2l4,2.6c0.1,0.1,0.4,0.3,0.6,0.3
						c0.2,0,0.4-0.1,0.6-0.2l1.4-0.9c-1,1.5,0.6,3.7-0.6,5.2v0.1c-0.4,0.5-0.6,1-1.1,1.3c-0.6-0.3-0.9-1-1.2-1.6
						c-0.6-0.6-0.6-1.7-0.2-2.5c0.2-0.8-0.1-1.5-0.2-2.1l-0.3-0.1c-0.6,0.8-0.9,2.1-0.4,3.2c0.3,0.5,0.3,1.2,0.6,1.6
						c0.2,0.8,0.7,1.3,1.1,2c0.1,0.3-0.1,0.3-0.3,0.4C19.4,44.1,19.5,43.7,19.2,43.5L19.2,43.5z M21,46.6c-0.1,0.3-0.3,0.6-0.3,1
						l-0.1,0.1c0.1-0.4-0.3-0.7-0.2-1.1c-0.2-0.3-0.2-0.7-0.4-1.1c-0.2-0.4,0.2-0.6,0.4-0.9c0.4,0.1,0.5,0.5,0.8,0.8
						C21.3,45.8,20.9,46.1,21,46.6L21,46.6z M20.9,43.9c0.9-1.2,1.6-2.4,1.9-3.9c0.2-0.1,0.1-0.5,0.2-0.7c-0.1-0.4,0.2-0.9,0-1.2
						c0.1-0.6-0.8-1.1-0.1-1.6l-0.1,0.1l1.6-1.1c-0.2,0.6-0.4,1.6-0.2,2.3c0.1,0.5,0.5,1,0.1,1.5c-1.2,1.6-1.9,3.5-2.8,5.2
						C21.1,44.5,20.9,44.2,20.9,43.9L20.9,43.9z M49.3,45.1c-0.9,0.8-2.2,1.1-3.5,1.1c-0.1,0-0.2,0.1-0.4,0.1
						c-0.1-0.1-0.1-0.1-0.1-0.2c0.9-1,2.4-1.6,3.8-1.3C49.2,45,49.3,45,49.3,45.1L49.3,45.1z M44,45.5c-0.1-0.2,0.1-0.3,0.2-0.4
						c0.2-0.2,0.7-0.2,0.8,0.1c0.1,0.4-0.1,0.6-0.4,0.7C44.3,46,44.2,45.8,44,45.5L44,45.5z M-5,45.1c0.2,0,0.4,0,0.6,0.2
						c0.1,0.2,0,0.4-0.1,0.6c-0.1,0.1-0.4,0.1-0.5,0.1c-0.2,0-0.3-0.2-0.4-0.4C-5.3,45.4-5.2,45.2-5,45.1L-5,45.1z M-10.7,46.9
						c-0.4-0.5-0.8-1.1-1.4-1.3c0-0.1-0.1-0.2,0-0.2c1.3,0,2.1,1.1,3.1,1.8v0.2C-9.7,47.4-10.2,47.2-10.7,46.9L-10.7,46.9z
						 M53.1,45.3c-0.6,0.9-1.1,2.1-2.2,2.4c-0.2,0-0.4,0.3-0.5,0.1c0.4-1,1.3-2.1,2.3-2.6C52.9,45.2,53,45.2,53.1,45.3L53.1,45.3z
						 M-3.5,45.3c0.2-0.1,0.4,0.1,0.6,0.3c0,0.3-0.2,0.4-0.4,0.5c-0.2,0-0.3-0.1-0.4-0.3C-3.8,45.5-3.6,45.5-3.5,45.3L-3.5,45.3z
						 M54.3,48.5c-0.1-0.3,0.2-0.5,0.3-0.8c0.4-0.8,0.9-1.7,1.7-2.1l0.1,0.1c-0.2,0.4-0.1,0.9-0.4,1.3
						C55.5,47.7,55.1,48.4,54.3,48.5L54.3,48.5z M-17.1,46.1c0.1,0.2,0.1,0.4,0,0.6c-0.1,0.1-0.4,0.2-0.6,0.1
						c-0.2-0.1-0.3-0.4-0.2-0.7C-17.8,45.8-17.3,45.7-17.1,46.1L-17.1,46.1z M-18.9,47.1c-0.3,0.1-0.5-0.1-0.6-0.4
						c0-0.2,0.1-0.4,0.3-0.6c0.2-0.1,0.5,0,0.6,0.2c0,0.1,0.1,0.2,0.1,0.4C-18.6,46.9-18.8,47-18.9,47.1L-18.9,47.1z M-16.2,46.3
						c0.3,0,0.5,0,0.6,0.2c0.1,0.2,0.1,0.6-0.2,0.7c-0.4,0.1-0.6-0.1-0.8-0.3C-16.5,46.6-16.4,46.4-16.2,46.3L-16.2,46.3z
						 M-11.2,46.9c0,0.2,0,0.4-0.2,0.5c-0.1,0.1-0.4,0.1-0.5,0.1c-0.1-0.1-0.4-0.3-0.2-0.5c0.1-0.1,0.2-0.2,0.4-0.3
						C-11.6,46.7-11.4,46.7-11.2,46.9L-11.2,46.9z M58.9,47.1c-0.1,0.2-0.2,0.4-0.4,0.4c-0.2,0-0.5-0.1-0.6-0.3
						c-0.1-0.3,0.1-0.4,0.4-0.5C58.6,46.7,58.8,46.8,58.9,47.1L58.9,47.1z M54.2,47.2c0,0.2-0.2,0.4-0.3,0.4
						c-0.4,0.1-0.6-0.1-0.8-0.4c0.1-0.2,0.2-0.4,0.4-0.5C53.8,46.7,54,46.9,54.2,47.2L54.2,47.2z M56.5,47.5
						c-0.2-0.2-0.1-0.4,0.1-0.6c0.2-0.1,0.6-0.1,0.8,0.2c0,0.2-0.1,0.4-0.2,0.4C57,47.7,56.7,47.7,56.5,47.5L56.5,47.5z M-18.1,48.3
						c-0.2,0-0.5-0.1-0.6-0.4c0-0.2,0.1-0.5,0.3-0.6c0.3-0.1,0.5,0.1,0.6,0.3C-17.8,47.9-17.8,48.2-18.1,48.3L-18.1,48.3z M52,48.4
						c-0.1-0.1-0.2-0.4,0-0.6c0.2-0.4,0.7-0.2,0.9,0.1c0.1,0.3-0.1,0.6-0.4,0.7C52.3,48.6,52.2,48.6,52,48.4L52,48.4z M-4.5,48.6
						c-0.1-0.1-0.3-0.3-0.2-0.6c0.1-0.1,0.2-0.2,0.4-0.3C-4,47.7-4,48-3.7,48.1c0.1,0.3-0.2,0.4-0.3,0.5
						C-4.2,48.8-4.4,48.8-4.5,48.6L-4.5,48.6z M58.5,48.4c0.1,0.2-0.1,0.3-0.1,0.4c-0.1,0.1-0.4,0.1-0.6,0.1
						c-0.2-0.1-0.2-0.4-0.2-0.6c0.1-0.1,0.2-0.2,0.4-0.3C58.1,48,58.4,48.1,58.5,48.4L58.5,48.4z M57.8,50.6v0.2
						c-0.9,0-1.9-0.3-2.6-1c-0.2-0.1-0.5-0.1-0.7-0.3c0.4-0.4,0.9-0.2,1.4-0.2c0.4-0.4-0.4-0.7,0.1-1c0.1,0,0.3-0.2,0.5-0.1
						c0.2,0.1,0.3,0.2,0.4,0.4c0.1,0.3-0.2,0.5-0.4,0.6c-0.1,0-0.3-0.1-0.3,0.1C56.8,49.5,57.3,50.1,57.8,50.6L57.8,50.6z
						 M46.2,48.5c0.1,0.1-0.1,0.3-0.1,0.4c-0.1,0.1-0.4,0.2-0.6,0.1c-0.1-0.2-0.4-0.4-0.3-0.6C45.5,48,46.1,48.1,46.2,48.5
						L46.2,48.5z M-12.4,49.9c-0.2,0-0.4-0.1-0.5-0.3c0-0.2,0.1-0.3,0.1-0.4c0.3-0.2,0.8-0.1,0.8,0.3C-12,49.7-12.1,49.8-12.4,49.9
						L-12.4,49.9z M-10,49.1h0.1c0,0.4-0.4,0.6-0.5,1c-0.4,0.9-1.1,1.7-2.1,1.8c-0.1-0.2,0.4-0.5,0.4-0.8
						C-11.5,50.1-10.7,49.7-10,49.1L-10,49.1z M45.6,49.5c0,0.3-0.2,0.5-0.4,0.6c-0.2,0.1-0.4-0.1-0.6-0.2c-0.2-0.2-0.1-0.4,0-0.7
						C45,48.9,45.4,49.2,45.6,49.5L45.6,49.5z M46.1,49.7c0.1-0.1,0.2-0.4,0.4-0.4c0.2,0,0.6,0,0.7,0.3c0,0.3-0.2,0.5-0.5,0.6
						c-0.1-0.1-0.2,0-0.3-0.1C46.3,50.1,46.1,49.9,46.1,49.7L46.1,49.7z M-6.2,50.2c-0.2,0-0.4-0.1-0.5-0.3
						c-0.1-0.2,0.2-0.4,0.3-0.5c0.3-0.1,0.4,0.1,0.6,0.3C-5.7,49.9-6,50.1-6.2,50.2L-6.2,50.2z M-4.6,49.3c0.3,0,0.6,0.1,0.6,0.4
						c-0.1,0.2-0.2,0.4-0.5,0.4c-0.2-0.1-0.4-0.1-0.5-0.3C-5,49.6-4.7,49.5-4.6,49.3L-4.6,49.3z M53.1,52.1
						c-0.4,0.2-0.8-0.3-1.1-0.4c-0.6-0.7-1.1-1.3-1.4-2.1c0.2-0.2,0.5,0.1,0.7,0.1c0.6,0.5,1.1,1.2,1.5,2
						C52.9,51.8,53.1,51.9,53.1,52.1L53.1,52.1z M53.8,49.8c0.1,0.2,0.1,0.4-0.1,0.6c-0.1,0.3-0.5,0.2-0.7,0.1
						c-0.1-0.1-0.4-0.4-0.2-0.6c0.1-0.2,0.3-0.3,0.5-0.4C53.4,49.5,53.5,49.7,53.8,49.8L53.8,49.8z M-1.8,51.1
						c-0.2,0.1-0.6,0-0.6-0.3c-0.1-0.3,0.1-0.4,0.3-0.5c0.2-0.1,0.4,0.1,0.5,0.2C-1.6,50.6-1.5,51-1.8,51.1L-1.8,51.1z M47.8,54.6
						L47.8,54.6c-1.2-0.9-1.5-2.1-1.9-3.3c-0.1-0.1-0.1-0.1-0.1-0.3c0.3-0.2,0.4,0.2,0.7,0.3l0.7,0.8c0.4,0.5,0.6,1.2,0.6,1.9
						C47.7,54.3,47.9,54.5,47.8,54.6L47.8,54.6z M-1.9,51.8c0-0.1,0-0.2,0.1-0.2c0.8-0.2,1.5-0.6,2.3-0.5l1.2,0.2v0.1
						C0.8,52.1-0.7,52.6-1.9,51.8L-1.9,51.8z M-4.2,51.4C-5,52-5.9,53.1-7,53.3c-0.2,0.1-0.4,0.4-0.6,0.2c0.5-1.5,2-2.2,3.4-2.4
						V51.4z M45.6,52.6c0.1,0.2,0,0.5-0.2,0.6c-0.1,0.1-0.4,0.1-0.5,0c-0.2-0.1-0.2-0.4-0.2-0.5c0.1-0.2,0.3-0.2,0.4-0.3
						C45.2,52.4,45.5,52.4,45.6,52.6L45.6,52.6z M40,53.2c0-0.2,0.3-0.1,0.4-0.3c0.9-0.2,1.7-0.4,2.6-0.1c0.1-0.1,0.3-0.1,0.4,0
						c-0.1,0.4-0.6,0.6-0.9,0.7C41.6,53.8,40.8,53.4,40,53.2L40,53.2z M-4.5,54C-4.7,54-4.8,54-5,53.9C-5,53.8-5.2,53.6-5,53.4
						c0.1-0.2,0.3-0.2,0.4-0.3c0.3,0,0.5,0.2,0.5,0.4C-4.2,53.7-4.2,53.9-4.5,54L-4.5,54z M-3.5,54.1c-0.1-0.1-0.1-0.4-0.1-0.5
						c0.1-0.1,0.2-0.1,0.4-0.2c0.3,0,0.5,0.2,0.6,0.4C-2.7,54-2.8,54.2-3,54.3C-3.2,54.3-3.3,54.3-3.5,54.1L-3.5,54.1z M45.1,54
						c0,0.2-0.1,0.4-0.2,0.5c-0.1,0.2-0.4,0.2-0.6,0.1c-0.2,0-0.2-0.2-0.3-0.4c-0.1-0.2,0.1-0.4,0.2-0.5C44.5,53.5,45,53.7,45.1,54
						L45.1,54z M46.3,54c0,0.1,0.1,0.3,0.1,0.4c-0.1,0.1-0.3,0.5-0.6,0.4c-0.1,0.1-0.2-0.1-0.3-0.2c-0.1-0.3,0-0.7,0.3-0.7
						C46,53.8,46.1,54,46.3,54L46.3,54z M-4.6,55.2c0-0.3,0-0.6,0.3-0.8c0.3,0,0.6,0,0.7,0.4c0.1,0.3-0.1,0.6-0.3,0.7
						C-4.1,55.6-4.5,55.6-4.6,55.2L-4.6,55.2z M-2.1,54.7c-0.1,0.7-0.2,1.7-0.9,2.1c-0.4,0.1-0.9,0.5-1.2,0.2v-0.1
						C-3.7,56-2.7,55.5-2.1,54.7L-2.1,54.7z M41,55.3c0.1,0.1-0.1,0.3-0.1,0.4c-0.1,0.2-0.4,0.1-0.6,0c-0.2-0.1-0.2-0.4-0.1-0.5
						c0.1-0.1,0.2-0.2,0.4-0.3C40.7,54.9,40.9,55.2,41,55.3L41,55.3z M0.6,56.6c0.4,0.6,0.1,1.5,0.4,2.1C0.5,58.8,0.3,58.3,0,58
						c-0.6-0.8-0.5-1.9-0.8-2.8c0.1-0.1,0.1-0.1,0.2-0.1c0.4,0.3,0.6,0.8,1,1.1C0.3,56.4,0.6,56.4,0.6,56.6L0.6,56.6z M42.3,55.5
						c0,0.2-0.2,0.3-0.4,0.4c-0.2,0-0.4-0.1-0.5-0.2c-0.1-0.3,0.1-0.4,0.3-0.5C42,55.1,42.2,55.2,42.3,55.5L42.3,55.5z M45.4,58
						c0,0.1,0,0.2-0.1,0.2h-0.1c-0.8-0.7-1.5-1.5-1.4-2.6h0.1C44.6,56.2,45.4,56.9,45.4,58L45.4,58z M42.5,57.2
						c0-0.3,0.3-0.4,0.4-0.5c0.3-0.1,0.5,0.1,0.6,0.4c0,0.2-0.1,0.4-0.2,0.5C43,57.7,42.5,57.7,42.5,57.2L42.5,57.2z M41.7,57.7
						c-0.4,1-1.4,1.5-2,2.3c-0.1-0.1-0.1-0.3-0.1-0.4c0.3-1,1.1-2,2-2.4C42.1,57.2,41.7,57.4,41.7,57.7L41.7,57.7z M43.7,58.5
						c0,0.2-0.2,0.4-0.4,0.5c-0.2,0-0.4-0.1-0.6-0.3c0-0.3,0.2-0.4,0.4-0.5C43.3,58.1,43.6,58.3,43.7,58.5L43.7,58.5z M16.6,10.6
						h7.7c0.4,0,0.6-0.3,0.6-0.7c0-0.4-0.3-0.7-0.6-0.7h-7.7C16.3,9.3,16,9.6,16,10C16,10.4,16.3,10.6,16.6,10.6L16.6,10.6z
						 M24.1,9.5h0.3c0.6,0,0.5,1,0,1C24,10.5,23.4,9.5,24.1,9.5L24.1,9.5z M20.9,9.5h0.8c0.4,0,1.1,1,0.4,1h-0.8
						C20.9,10.5,20.1,9.5,20.9,9.5L20.9,9.5z M17.8,9.5h0.8c0.4,0,1.1,1,0.4,1h-0.8C17.7,10.5,17,9.5,17.8,9.5L17.8,9.5z M24.4,21.7
						c0-0.5,0.4-0.3,0.8-0.3c0.4,0,0.8-0.1,0.8,0.3c0,0.4-0.4,0.1-0.8,0.1C24.9,21.8,24.4,22,24.4,21.7L24.4,21.7z M24.3,22.8
						l-0.6,2.4l1.5-0.6l1.4,0.6l-0.4-2.4l1,0.3l-0.4-1.3l0.4-1.3l-1.1,0.2l0.6-2.2l-1.4,0.6l-1.5-0.6l0.6,2.2l-1.1-0.2l0.3,1.3
						l-0.3,1.3L24.3,22.8z M25.2,20.8c0.4,0.9,1.1-0.1,1.1,0.9c0,0.4,0,0.9-0.4,0.9h-1.1c-0.5,0-0.5-0.4-0.5-0.9
						C24.2,20.8,24.9,21.5,25.2,20.8L25.2,20.8z M20.9,21.4l-0.2,0.1v0.3l-0.2-0.1l-0.2,0.1v-0.3l-0.2-0.1l0.2-0.2L20.1,21h0.3
						l0.1-0.3l0.1,0.3H21l-0.1,0.2L20.9,21.4z M18.9,22.9l0.2-0.2l-0.1-0.2h0.3l0.1-0.3l0.1,0.3h0.3l-0.1,0.2l0.2,0.2L19.6,23v0.3
						l-0.2-0.1l-0.2,0.1V23L18.9,22.9z M20.9,22.3h0.3l0.1-0.3l0.1,0.3h0.3l-0.1,0.2l0.2,0.2l-0.2,0.1v0.3L21.4,23l-0.2,0.1v-0.3
						l-0.2-0.1l0.2-0.2L20.9,22.3z M21.5,23.9l0.1,0.1h-0.1v0.1l-0.1-0.1l-0.1,0.1V24h-0.1l0.1-0.1l-0.1-0.1h0.1l0.1-0.1l0.1,0.1
						h0.1L21.5,23.9z M20.4,24.6l0.4,0.4l-0.4,0.1v0.5l-0.4-0.3l-0.4,0.3v-0.5L19,25l0.4-0.4l-0.2-0.4l0.4,0.1l0.3-0.4l0.3,0.4
						l0.4-0.1L20.4,24.6z M16.4,5.3l2-1.5l-1.1-2.2l2.3,0.7L20.4,0l0.9,2.3l2.3-0.7l-1.1,2.2l2,1.5l-2.4,0.4l0.1,2.5l-1.8-1.7
						l-1.8,1.7l0.1-2.5L16.4,5.3z M8.4,53.1v-0.1l1.7-0.4v0.1c-0.4,0.1-0.5,0.1-0.4,0.5l0.4,1.5c0.1,0.2,0.2,0.9,0.9,0.7
						c0.9-0.2,0.8-0.9,0.7-1.2l-0.3-1.3c-0.1-0.3-0.1-0.4-0.6-0.3v-0.1l1.1-0.3v0.1c-0.3,0.1-0.4,0.2-0.3,0.5L12,54
						c0.1,0.3,0.1,0.7-0.1,1c-0.2,0.3-0.6,0.5-0.9,0.6c-0.2,0.1-0.7,0.1-1.1,0c-0.3-0.1-0.4-0.2-0.6-0.7l-0.4-1.5
						C8.8,53,8.7,53,8.4,53.1L8.4,53.1z M12.4,52.9c-0.1-0.3,0-0.9,0.9-1.2c0.4-0.1,0.7,0,0.9-0.1c0.1,0,0.1-0.1,0.1-0.2h0.1l0.2,1
						h-0.1c-0.1-0.3-0.6-0.7-1.2-0.6c-0.3,0.1-0.5,0.3-0.4,0.6c0.1,0.2,0.1,0.3,0.6,0.4l0.9,0.1c0.2,0,0.6,0.2,0.7,0.7
						c0.1,0.4-0.1,1-1.1,1.3c-0.5,0.1-0.8,0-0.9,0.1C13,54.9,13,55,13,55.2h-0.1L12.6,54h0.1c0.2,0.4,0.6,0.9,1.3,0.7
						c0.6-0.1,0.6-0.6,0.6-0.7c-0.1-0.3-0.4-0.4-0.7-0.4l-0.4-0.1C12.6,53.5,12.4,53.1,12.4,52.9L12.4,52.9z M15.2,52.3l-0.1-0.9
						l3.1-0.3l0.1,0.9h-0.1c-0.1-0.7-0.7-0.7-1.1-0.7l0.2,2.4c0.1,0.4,0.1,0.4,0.6,0.4v0.1l-1.9,0.2v-0.1c0.4-0.1,0.5-0.1,0.5-0.4
						l-0.2-2.4c-0.4,0.1-0.9,0.1-0.9,0.9L15.2,52.3z M20.6,54.1c-0.4-0.1-0.5-0.1-0.4-0.4v-0.9h0.1l1.1,1.5h1l1.1,0.1v-0.1
						c-0.1,0-0.4-0.1-0.4-0.2c0-0.1,0.1-0.2,0.3-0.6l1.2,0.1c0.1,0.1,0.2,0.5,0.1,0.7c0,0.1-0.1,0.1-0.4,0.1v0.1l1.7,0.2v-0.1
						c-0.3,0-0.3-0.2-0.5-0.7l-0.9-2.6h-0.1l-1.5,2.4c-0.2,0.3-0.3,0.4-0.6,0.4c-0.1,0-0.1,0-0.1-0.1l-1.1-1.3
						c0.3-0.1,0.9-0.2,0.9-0.7c0-0.7-1.1-0.8-1.5-0.8h-1.7v0.1c0.3,0,0.4,0,0.4,0.4l-0.1,2c0,0.4-0.1,0.4-0.5,0.4v0.1h1.8L20.6,54.1
						z M24,52.3l0.4,1.2l-1-0.1L24,52.3z M20.1,51.5c0-0.1,0.1-0.2,0.4-0.2c0.4,0,0.6,0.2,0.6,0.7c0,0.6-0.3,0.7-1,0.7V51.5z
						 M28.9,55.4l-3-0.6v-0.1c0.3,0,0.4,0.1,0.5-0.2l0.4-2.2c0.1-0.3-0.1-0.4-0.4-0.4v-0.1l1.8,0.4v0.1c-0.4-0.1-0.5-0.1-0.6,0.3
						l-0.4,2.1c-0.1,0.2,0.1,0.3,0.4,0.4c0.8,0.1,1.1-0.1,1.5-0.7h0.1L28.9,55.4z M29.2,55.3c0.3,0.1,0.5,0.1,0.6-0.2l0.4-2.1
						c0.1-0.3-0.2-0.4-0.4-0.4v-0.1l1.8,0.4v0.1c-0.2-0.1-0.5-0.1-0.6,0.2l-0.4,2.1c-0.1,0.3,0.1,0.4,0.4,0.4v0.1l-1.8-0.4V55.3z
						 M31.1,55.8V56l1.1,0.1V56c-0.1,0-0.4-0.1-0.4-0.2c0-0.1,0.1-0.2,0.3-0.6l1.2,0.1c0.1,0.1,0.2,0.5,0.2,0.7
						c0,0.1-0.1,0.1-0.4,0.1v0.1l1.7,0.1v-0.1c-0.3,0-0.4-0.1-0.5-0.7l-0.9-2.5h-0.1l-1.4,2.4C31.4,55.7,31.4,55.8,31.1,55.8
						L31.1,55.8z M32.7,53.9l0.4,1.2l-1-0.1L32.7,53.9z M19.4,19.8v0.3c0,0.1,0.1,0.1,0.1,0.1h1.1c0.1,0,0.1-0.1,0.1-0.1v-0.4
						c0.1-0.1,0.2-0.3,0.2-0.6c0-1.1-0.6-0.1-0.9-1c-0.2,0.8-0.9,0.1-0.9,1C19.2,19.5,19.3,19.7,19.4,19.8L19.4,19.8z M20.1,18.9
						c0.3,0,0.8-0.1,0.8,0.4c0,0.4-0.4,0.1-0.7,0.1c-0.3,0-0.7,0.2-0.7-0.1C19.4,18.7,19.8,18.9,20.1,18.9L20.1,18.9z M29.9,32.3
						c0-0.2,0.2-0.4,0.5-0.4s0.5,0.2,0.5,0.4c0,0.2-0.2,0.4-0.5,0.4C30.2,32.8,29.9,32.5,29.9,32.3L29.9,32.3z M27.9,16.9
						c0-0.1,0.2-0.4,0.2-0.4l0.2,0.4c0,0.1-0.1,0.3-0.2,0.3C27.9,17.2,27.9,17,27.9,16.9L27.9,16.9z M12.4,16.4l0.2,0.4
						c0,0.1-0.1,0.3-0.2,0.3c-0.1,0-0.2-0.1-0.2-0.3C12.1,16.8,12.4,16.4,12.4,16.4L12.4,16.4z M16.1,16.9c0-0.1,0.2-0.4,0.2-0.4
						l0.2,0.4c0,0.1-0.1,0.3-0.2,0.3C16.2,17.2,16.1,17,16.1,16.9L16.1,16.9z M20,16.9c0-0.1,0.2-0.4,0.2-0.4l0.2,0.4
						c0,0.1-0.1,0.3-0.2,0.3C20.1,17.2,20,17,20,16.9L20,16.9z M23.9,16.9c0-0.1,0.2-0.4,0.2-0.4l0.2,0.4c0,0.1-0.1,0.3-0.2,0.3
						C24,17.2,23.9,17,23.9,16.9L23.9,16.9z M12.4,22c0,0,0.2,0.4,0.2,0.4c0,0.1-0.1,0.3-0.2,0.3c-0.1,0-0.2-0.1-0.2-0.3
						C12.1,22.4,12.4,22,12.4,22L12.4,22z M12.4,27.4c0,0,0.2,0.4,0.2,0.4c0,0.1-0.1,0.3-0.2,0.3c-0.1,0-0.2-0.1-0.2-0.3
						C12.1,27.9,12.4,27.4,12.4,27.4L12.4,27.4z M13,31.6c0,0,0.2,0.4,0.2,0.4c0,0.1-0.1,0.3-0.2,0.3c-0.1,0-0.2-0.1-0.2-0.3
						C12.8,32.2,13,31.6,13,31.6L13,31.6z M16.3,33.9c0,0,0.2,0.4,0.2,0.4c0,0.1-0.1,0.3-0.2,0.3c-0.1,0-0.2-0.1-0.2-0.3L16.3,33.9z
						 M28.3,22l0.2,0.4c0,0.1-0.1,0.3-0.2,0.3c-0.1,0-0.2-0.1-0.2-0.3L28.3,22z M28.3,27.4l0.2,0.4c0,0.1-0.1,0.3-0.2,0.3
						c-0.1,0-0.2-0.1-0.2-0.3L28.3,27.4z M27.7,31.6l0.2,0.4c0,0.1-0.1,0.3-0.2,0.3c-0.1,0-0.2-0.1-0.2-0.3L27.7,31.6z M24.4,33.9
						l0.2,0.4c0,0.1-0.1,0.3-0.2,0.3s-0.2-0.1-0.2-0.3L24.4,33.9z M20.4,36.4l0.2,0.4c0,0.1-0.1,0.3-0.2,0.3c-0.1,0-0.2-0.1-0.2-0.3
						C20.1,36.7,20.4,36.4,20.4,36.4L20.4,36.4z M23.1,29c0,0-0.1-0.3-0.1-0.4c0-0.2,0.1-0.4,0.1-0.4c0,0,0.1-0.1,0.2-0.1
						c0.3,0.1,0.2,0.4,0.2,0.6c0.1,0.1,0.2,0.4,0.4,0.3c0-0.1,0-0.2-0.1-0.3l0.2-0.1c0-0.1-0.1-0.1-0.1-0.1
						c-0.1-0.1-0.1-0.2-0.2-0.4c0.2-0.3,0.5-0.5,0.9-0.4c0.2,0,0.6-0.3,0.7,0.1c0.1,0.1-0.1,0.1-0.1,0.2c0.3,0.4,0.1,0.8,0,1.2
						c0.2,0.4,0.7,0,1.1,0.3c0.1,0,0.2-0.1,0.1-0.2c-0.1-0.1-0.1-0.2-0.3-0.1c-0.2-0.1-0.4-0.4-0.4-0.7c0.2-0.4,0.7-0.4,1.1-0.6
						c0.1,0,0.3,0.1,0.3,0.1L27,28.3c-0.1,0.1-0.3,0-0.4-0.1c-0.1-0.1-0.4-0.1-0.5,0c0.1,0.4,0.6,0.4,0.7,0.8c0,0.4-0.4,0.6-0.4,1
						c0.5,0.4-0.3,0.6-0.1,1c-0.1,0.3-0.4,0.2-0.6,0.3c-0.4-0.2,0.2-0.4,0.1-0.6c-0.4,0.1-0.6,0.7-0.9,1c-0.1,0-0.4,0.1-0.5-0.1
						v-0.2c0.4-0.1,0.6-0.4,0.6-0.7c-0.1-0.2-0.3-0.4-0.6-0.3c-0.2,0.1-0.4,0.4-0.5,0.7c0.1,0.6-0.6,0.6-0.9,0.8L23,31.8
						c0-0.1,0-0.3,0.1-0.4c0.5-0.2,0.5-0.9,0.7-1.3C23.9,29.6,23.1,29,23.1,29L23.1,29z M9.2,32.5C9.2,32.8,9,33,8.7,33
						c-0.3,0-0.5-0.2-0.5-0.4c0-0.2,0.2-0.4,0.5-0.4C9,32.1,9.2,32.2,9.2,32.5L9.2,32.5z M-16.8,47.4c0.3,0,0.5,0.2,0.5,0.4
						c0,0.3-0.2,0.4-0.5,0.4s-0.5-0.2-0.5-0.4C-17.3,47.6-17,47.4-16.8,47.4L-16.8,47.4z M5.5,56.5v0.1l1.1-0.1v-0.1
						c-0.1,0-0.4,0-0.4-0.1c0-0.1,0.1-0.3,0.1-0.6l1.2-0.1c0.1,0.1,0.3,0.4,0.3,0.6s-0.1,0.1-0.4,0.2v0.1l1.7-0.2V56
						c-0.3,0.1-0.4-0.1-0.6-0.6L7,53.2H6.8L6,55.8C5.8,56.3,5.8,56.4,5.5,56.5L5.5,56.5z M6.7,54.3l0.6,1l-1,0.1L6.7,54.3z
						 M8.5,51.5c-0.5-0.1-0.9,0.3-1.3,0.1l-0.9,0.2H6.1c-0.4-1.1,0.9-1.8,0.4-2.9c-0.4-0.6-1-1.3-1.8-1.1c-0.9-0.1-1.6,0.4-2.1,1.1
						c-0.6,1.3,0.1,2.7,0.4,4.1c-0.1,0.4,0.4,0.9,0,1.3c-0.9-0.6-1.9-0.9-2.9-0.6C-0.2,53.9-0.8,53.7-1,54c1.1,0.6,2.6,0.5,3.8,0.5
						c0.1-0.1,0.3-0.1,0.4,0c0.1,0.7-0.1,1.6,0.3,2.3c0.5,0.7,1.2,0.8,2,0.9c2.4-0.1,4.5-0.8,6.7-1.4c0.4,0,0.6-0.2,0.9-0.2
						c1.1-0.3,2.4-0.5,3.7-0.5c-0.6,0.7-0.9,1.6-1.1,2.4c-0.3,0.7,0.6,0.8,0.8,1.3c-0.8,0.2-1.4,0.8-2.1,1.1
						c-1.6-0.1-3.1,0.6-4.6,0.8c0,0.4,0.6,0.2,0.6,0.6c-0.1,0.2-0.3,0.3-0.5,0.4c0,0.1,0,0.2,0.1,0.2c0.1-0.2,0.5-0.1,0.6-0.2
						c0.5,0,0.9-0.1,1.4-0.2c0.4-0.2,0.9-0.2,1.4-0.5c0.6-0.1,0.9-0.5,1.4-0.7c0.8,0,1.5-0.3,2.2-0.3v0.1c-0.6,1-1.2,2-1.9,3
						c-0.1,0.2,0,0.4,0.2,0.4c0.4,0.1,0.7,0,1-0.1c0.6-1,1.1-1.9,1.5-2.9c0.2-0.9,0.9-1.4,1.5-2c0.1-0.1,0.3-0.2,0.4-0.1
						c-0.5,0.6-0.9,1.2-1.2,1.9c-0.2,0.7-0.3,1.7,0.4,2.4c0.3,0.3,0.8,0.2,1.2,0.2c1-0.5,2.3,0.3,3.1-0.7c0.5-0.1,0.6,0.5,0.8,0.7
						c0.4,0.1,0.9,0.6,1.4,0.3c0-0.3-0.4-0.6-0.5-0.8c-0.3-0.6-0.7-1-1-1.6c-0.1-0.4-0.4-0.6-0.4-1c0.5,0.1,0.9,0.5,1.4,0.6
						c0.4,0.2,1,0.1,1.4,0.4c0.4,0.4,0.9,0.7,1.3,1c0.6,0.3,1.4,0.4,2.1,0.7c0.3,0,0.6,0.2,0.9,0c-0.1-0.1-0.2-0.2-0.4-0.3
						c-0.1-0.4,0.5-0.1,0.6-0.4c-0.1-0.1-0.1-0.2-0.3-0.2c-0.4-0.2-1.3-0.3-1.6-0.4c-0.3-0.1-0.6-0.2-0.9-0.3c-1.6,0-2.4-1.5-3.6-2
						c0.3-0.3,0.7-0.5,0.9-0.9c0.2-0.4,0.3-1,0.1-1.4c-0.2-0.8-1.3-0.7-1.9-1.2l0.1-0.1c1-0.1,1.9,0.2,2.8,0.4
						c2.5,0.4,4.8,1.3,7.4,1.4c1.4,0,3.2,0.1,3.9-1.3c0.1-0.8,0.3-1.7,0.4-2.5c0.3-1.3,1.1-2.6,1-4.1c-0.3-0.8-0.9-1.4-1.8-1.7
						c-0.9-0.2-1.7-0.1-2.3,0.6c-0.9,0.8-0.3,2.1-0.3,3.1c0,0.2,0,0.4-0.2,0.5c-3.8-0.4-7.3-1.3-11-1.7c-0.9-0.1-1.7-0.1-2.6-0.3
						l-1.1-0.1c-3.2,0.1-6.5,0.3-9.5,1.1C9.8,51.2,9.1,51.2,8.5,51.5L8.5,51.5z M11.1,61.8l-0.4-0.4c0.2-0.2,0.6-0.1,0.9-0.3
						c0.6-0.2,1.4-0.5,2.2-0.3C13,61.5,11.9,61.6,11.1,61.8L11.1,61.8z M27.3,61.4c0.6,0.3,1.9,0.6,2.8,0.7c-0.1,0.4-0.7,0-0.6,0.5
						c-0.8-0.3-1.7-0.5-2.4-1.1C27.1,61.4,27.2,61.4,27.3,61.4L27.3,61.4z M2.8,49.9c0.1-0.5,0.2-1,0.6-1.3c0.6-0.4,1.5-0.3,2.1,0.1
						c0.2,0.1,0.3,0.3,0.4,0.5c0.1,0.4-0.1,1-0.4,1.2H5.3c0-0.4,0-0.9,0.1-1.2c0-0.3-0.3-0.4-0.5-0.5c-0.4-0.1-0.9,0.1-1.1,0.3
						c-0.3,0.3-0.5,0.7-0.4,1.2c0.2,0.3,0,0.7,0.1,1l-0.1,0.1C3.2,50.9,2.8,50.5,2.8,49.9L2.8,49.9z M4.1,50.6
						c0.4,0.3,0.9,0.1,1.4,0.2c0.1,0.3,0.1,0.7-0.1,0.9c-0.4-0.1-1-0.1-1.2-0.5C4.2,51.2,4.1,50.9,4.1,50.6L4.1,50.6z M4,49.8
						c0.1-0.2,0-0.5,0.3-0.6c0.2-0.1,0.5-0.1,0.5,0.1c0,0.3-0.1,0.7-0.1,1C4.3,50.3,4.1,50.1,4,49.8L4,49.8z M16.2,58.4
						c-0.1-1,0.2-1.8,0.9-2.4c0.4-0.1,0.8-0.1,1.1,0.1c-0.6,0.2-1.5,0.4-1.7,1.3c0,0.4-0.1,0.5,0.1,0.8c0.3,0.5,0.9,0.3,1.3,0.7
						c0,0.1-0.1,0.3-0.2,0.3C17.1,58.9,16.6,58.8,16.2,58.4L16.2,58.4z M15.3,60.3c0.6-0.3,1.3-0.8,2-0.6
						C16.8,60.1,15.9,60.3,15.3,60.3L15.3,60.3z M17.7,60.6c-0.4,0.9-0.8,1.7-1.3,2.5c-0.1,0.1-0.3,0.1-0.4,0.2c0-0.4,0.4-0.7,0.5-1
						c0.6-0.7,0.7-1.6,1.4-2.2C18.1,60.3,17.7,60.3,17.7,60.6L17.7,60.6z M18.4,59L18.4,59L18.4,59L18.4,59C18.4,59,18.4,59,18.4,59
						L18.4,59z M18.1,58.3c-0.4-0.1-0.9-0.2-1.2-0.3c-0.3-0.3,0-0.6,0-0.9c0.4-0.6,1.4-0.9,1.9-0.4C18.7,57.3,18.5,57.8,18.1,58.3
						L18.1,58.3z M18.7,58.3c0.1-0.4,0.2-0.8,0.4-1.1C19.1,57.4,18.9,58,18.7,58.3L18.7,58.3z M19,56c-0.4-0.1-0.5-0.5-0.9-0.5
						c0.3-0.1,0.6-0.1,1,0C19.2,55.7,19.1,55.9,19,56L19,56z M19.4,56.9L19.4,56.9v-0.3V56.9z M19.4,58.1c0-0.1,0.1-0.2,0.1-0.4
						c0.1-0.1,0.3,0.1,0.3,0.2C19.6,58.1,19.5,58.2,19.4,58.1L19.4,58.1z M19.7,56.5c0.1-0.4,0.1-0.7,0.4-1c0.3,0,0.5,0,0.7,0.1
						c0.1,0.5,0.7,1.3,0,1.7c-0.2,0.1-0.6,0.4-0.9,0.1C19.6,57.1,19.6,56.9,19.7,56.5L19.7,56.5z M21.6,55.7
						c-0.1-0.2,0.2-0.1,0.4-0.1l0.8,0.1C22.4,55.5,21.9,56.6,21.6,55.7L21.6,55.7z M22.9,56c-0.3,0.1-0.6,0.5-0.9,0.6
						C22.2,56.3,22.6,56,22.9,56L22.9,56z M21.9,59.4c0,0.1,0,0.1-0.1,0.2l-0.6-0.5C21.5,59,21.7,59.1,21.9,59.4L21.9,59.4z
						 M21.2,58.6c0.1-0.1,0.2-0.1,0.2,0H21.2z M20.9,58.1c0.1-0.1,0.2-0.4,0.4-0.4c0,0,0,0.1,0.1,0.1C21.1,58,21,58.1,20.9,58.1
						L20.9,58.1z M20.2,58.1L20.2,58.1l0.1-0.1C20.4,58,20.3,58,20.2,58.1L20.2,58.1z M20.3,59.1c0.4-0.4,0.6,0.2,0.8,0.5
						c0.4,0.6,1.4,1.1,1,1.9c-0.5,0.4-1.3,0-1.8,0.4c-0.3,0-0.8,0.1-0.9-0.2C19.6,60.8,19.9,59.9,20.3,59.1L20.3,59.1z M19.6,59.6
						l0.1-0.2c-0.2,0.7-0.5,1.3-0.9,1.9C18.7,60.7,19.4,60.2,19.6,59.6L19.6,59.6z M20.7,62.8c-0.5,0-1.2,0.3-1.7-0.1
						c0-0.2-0.2-0.3-0.2-0.5c0.4-0.1,0.8,0.4,1.1,0c0.6,0,1.2-0.1,1.8,0.1c0.3,0.1,0.7-0.5,0.8,0.1C22.4,63.2,21.4,62.6,20.7,62.8
						L20.7,62.8z M22.4,60.6c0,0.3,0.3,0.4,0.1,0.6C22.5,61.1,22.3,60.9,22.4,60.6L22.4,60.6z M23.2,62.3L23,62.3
						c-0.1-0.1-0.1-0.4-0.1-0.6C23.1,61.9,23.2,62.1,23.2,62.3L23.2,62.3z M24.4,62.9c0,0.1-0.1,0.1-0.2,0c-0.8-1-1.1-2.1-1.6-3.3
						h0.1C23.3,60.7,23.8,61.9,24.4,62.9L24.4,62.9z M25.4,60.4C25.3,60.4,25.3,60.5,25.4,60.4c-0.9,0.1-1.3-0.4-1.9-0.7v-0.1
						C24.2,59.6,24.8,60.1,25.4,60.4L25.4,60.4z M24.7,56.9c0.3,0.1,0.4,0.4,0.4,0.7c0,0.6-0.4,1.1-0.9,1.3c-0.3,0.1-0.7,0.2-1,0.1
						c0.6,0,1.3-0.3,1.6-0.9L24.7,56.9z M24.2,56.7c0.1,0.4,0.4,0.7,0.2,1.2c-0.3,0.5-0.8,0.5-1.2,0.6c-0.2,0-0.4-0.1-0.6-0.2
						c0-0.1,0-0.2-0.1-0.3c0.1-0.4-0.6-0.7-0.1-1C22.7,56.7,23.7,55.7,24.2,56.7L24.2,56.7z M35.9,48.4c0.4-0.2,1.1-0.2,1.5,0.1
						c0.4,0.1,0.7,0.2,0.9,0.6c0.4,0.4,0.3,1,0.2,1.6c-0.2,0.5-0.6,0.8-1.1,0.9c0-0.7,0.6-1.1,0.4-1.8c-0.4-0.5-1-0.7-1.6-0.5
						c-0.2,0.1-0.1,0.4-0.2,0.7l-0.1,0.9c-0.5,0-0.6-0.5-0.7-0.9C35.1,49.2,35.3,48.6,35.9,48.4L35.9,48.4z M36.3,50.8
						c0.3-0.3-0.1-2,0.7-0.9c0,0.2,0,0.5-0.2,0.7C36.7,50.7,36.5,50.9,36.3,50.8L36.3,50.8z M36.6,51.5c0,0.4-0.4,0.3-0.6,0.5h-0.6
						c-0.1-0.2-0.1-0.5-0.1-0.7C35.7,51.2,36.2,51.2,36.6,51.5L36.6,51.5z M16.6,50.6c2.4,0,4.7-0.1,6.9,0.2c0.7,0,1.4,0.2,2.1,0.3
						c1.4,0.2,2.8,0.6,4.3,0.7c0.2,0.1,0.5,0.1,0.8,0.1c2.4,0.4,4.9,1,7.2,0c0,1-0.4,1.8-0.5,2.8c-0.2,0.3,0,0.7-0.3,1
						c0,0.5-0.4,0.7-0.7,0.9c-3.1,0.7-6.2-0.4-9.2-0.9c-4.2-1-9.1-1.2-13.3-0.2c-2,0.4-3.9,0.9-5.9,1.4c-1.2,0.1-2.5,0.4-3.6,0
						c-0.9-0.4-0.6-1.7-0.9-2.6c0.1-0.7-0.2-1.2-0.2-1.8c-0.1-0.2-0.1-0.5-0.1-0.7c0.4,0.1,0.8,0.4,1.2,0.4c2.2,0.4,4.1-0.3,6.2-0.7
						C12.5,51.1,14.5,50.7,16.6,50.6L16.6,50.6z"/>
					<path id="Fill-4" class="st2" d="M69.9,37.4c-0.6-0.1-1-0.1-1.1-0.2c-0.3-0.1-0.3-0.4-0.3-0.7c0-0.2,0.1-0.6,0.2-0.9l0.5-1.1h4
						l0.6,1.4c0.1,0.4,0.2,0.6,0.3,0.6c0,0.1,0.1,0.2,0.1,0.3c0,0.1-0.1,0.3-0.2,0.4c-0.1,0.1-0.5,0.2-0.9,0.2h-0.2v0.3h5.5v-0.3
						c-0.3,0-0.6-0.1-0.8-0.3c-0.3-0.2-0.6-0.8-1-1.7l-4.1-9.3h-0.1l-4,9.1c-0.3,0.9-0.7,1.4-1,1.7c-0.3,0.3-0.6,0.4-1,0.5v0.3H70
						v-0.2H69.9z M71.1,30l1.7,3.9h-3.4L71.1,30z M78.1,30.5c-0.1-0.1-0.3-0.2-0.7-0.3v-0.3h3.1v5.3c0,0.6,0,0.9,0.1,1.1
						c0.1,0.1,0.1,0.3,0.3,0.4c0.1,0.1,0.3,0.1,0.4,0.1c0.2,0,0.3-0.1,0.6-0.1c0.2-0.1,0.5-0.4,0.8-0.9v-4.2c0-0.6-0.1-1-0.1-1.1
						c-0.1-0.1-0.4-0.2-0.7-0.3v-0.3h3.1V36c0,0.6,0.1,1,0.1,1.1c0.1,0.1,0.4,0.2,0.7,0.3v0.3h-3.1v-1.1c-0.3,0.4-0.8,0.8-1.1,1
						c-0.4,0.2-0.8,0.3-1.3,0.3c-0.4,0-0.8-0.1-1.2-0.4c-0.4-0.3-0.6-0.6-0.7-0.9c-0.1-0.4-0.1-1-0.1-1.9v-3.1
						C78.2,31,78.2,30.6,78.1,30.5L78.1,30.5z M86.9,33.5c-0.3-0.4-0.6-1-0.6-1.5c0-0.6,0.2-1.1,0.6-1.6c0.4-0.5,1-0.7,1.8-0.7
						c0.4,0,0.8,0.1,1.2,0.3c0.1,0.1,0.3,0.1,0.3,0.1c0.1,0,0.2,0,0.2-0.1c0.1-0.1,0.1-0.1,0.3-0.4h0.3l0.1,2.7h-0.3
						c-0.4-0.8-0.7-1.4-1-1.6c-0.4-0.3-0.7-0.4-1-0.4c-0.2,0-0.4,0.1-0.6,0.2c-0.1,0.1-0.2,0.4-0.2,0.5s0.1,0.3,0.1,0.4
						c0.2,0.2,0.7,0.6,1.5,1.2c0.8,0.6,1.3,1,1.6,1.4c0.3,0.4,0.4,0.9,0.4,1.3s-0.1,0.9-0.3,1.3c-0.2,0.4-0.5,0.7-0.9,1
						C90,37.9,89.6,38,89.1,38c-0.3,0-0.8-0.1-1.5-0.4c-0.1-0.1-0.3-0.1-0.3-0.1c-0.2,0-0.3,0.1-0.4,0.4h-0.3l-0.1-2.8h0.3
						c0.3,0.7,0.6,1.3,1,1.6c0.4,0.4,0.8,0.6,1.3,0.6c0.3,0,0.5-0.1,0.6-0.2c0.1-0.1,0.3-0.4,0.3-0.6c0-0.3-0.1-0.5-0.3-0.7
						c-0.1-0.2-0.6-0.5-1.1-0.9C87.7,34.3,87.2,33.9,86.9,33.5L86.9,33.5z M92.9,30.7h-1v-0.3c0.7-0.5,1.3-1,1.7-1.6
						s0.9-1.1,1.3-1.8h0.3v2.8H97v0.9h-1.8v4.8c0,0.4,0,0.8,0.1,0.9c0.1,0.1,0.1,0.2,0.2,0.3c0.1,0.1,0.2,0.1,0.3,0.1
						c0.4,0,0.7-0.3,1-0.9l0.3,0.2c-0.4,1.1-1.2,1.6-2.2,1.6c-0.5,0-0.9-0.1-1.3-0.4s-0.6-0.6-0.6-0.9C93,36.3,93,35.8,93,34.9
						L92.9,30.7L92.9,30.7z M101.8,37.7h-4.2v-0.3c0.4,0,0.6-0.1,0.7-0.3c0.1-0.1,0.2-0.6,0.2-1.3v-4.3c0-0.4,0-0.7-0.1-0.9
						s-0.1-0.3-0.2-0.4c-0.1-0.1-0.3-0.1-0.6-0.1v-0.3h3.1v1.8c0.5-0.8,1-1.4,1.3-1.6c0.4-0.3,0.8-0.4,1.1-0.4
						c0.3,0,0.6,0.1,0.8,0.3c0.2,0.2,0.3,0.4,0.3,0.8s-0.1,0.6-0.3,0.9c-0.2,0.2-0.4,0.3-0.6,0.3c-0.3,0-0.6-0.1-0.8-0.3
						c-0.2-0.2-0.3-0.3-0.3-0.4c-0.1,0-0.1-0.1-0.2-0.1c-0.1,0-0.3,0.1-0.5,0.2c-0.2,0.2-0.4,0.5-0.5,0.8c-0.1,0.6-0.3,1.1-0.3,1.8
						v1.8v0.5c0,0.3,0,0.5,0.1,0.6c0.1,0.1,0.1,0.3,0.3,0.4c0.1,0.1,0.4,0.1,0.6,0.1V37.7z M105.3,34.7c-0.5,0.5-0.8,1-0.8,1.6
						c0,0.4,0.1,0.8,0.4,1.1c0.3,0.3,0.6,0.4,1.1,0.4c0.8,0,1.6-0.4,2.5-1.3c0.1,0.4,0.2,0.7,0.4,0.9c0.3,0.2,0.6,0.3,1,0.3
						c0.3,0,0.7-0.1,1-0.3c0.3-0.2,0.6-0.5,0.8-0.9l-0.3-0.2c-0.1,0.2-0.3,0.3-0.4,0.3c-0.1,0-0.1,0-0.2-0.1
						c-0.1-0.1-0.1-0.1-0.1-0.2c0-0.1-0.1-0.4-0.1-0.7v-3.1c0-0.9-0.1-1.4-0.1-1.6c-0.1-0.4-0.4-0.7-0.8-1c-0.4-0.3-1-0.5-1.7-0.5
						c-0.6,0-1.2,0.1-1.7,0.3c-0.6,0.2-1,0.5-1.3,0.9c-0.3,0.4-0.5,0.8-0.5,1.1c0,0.3,0.1,0.6,0.3,0.8c0.2,0.2,0.6,0.3,0.9,0.3
						c0.4,0,0.6-0.1,0.8-0.3c0.2-0.2,0.3-0.4,0.3-0.7c0-0.2-0.1-0.4-0.3-0.7c-0.1-0.1-0.2-0.4-0.2-0.4c0-0.1,0.1-0.3,0.2-0.4
						c0.2-0.1,0.6-0.2,0.9-0.2c0.2,0,0.4,0.1,0.6,0.1c0.2,0.1,0.3,0.2,0.4,0.4c0.1,0.1,0.1,0.5,0.1,1.1v0.8
						C106.9,33.6,105.8,34.2,105.3,34.7L105.3,34.7z M108.6,35.9c-0.3,0.3-0.7,0.5-1,0.5s-0.4-0.1-0.6-0.2c-0.2-0.2-0.3-0.4-0.3-0.7
						c0-0.3,0.1-0.6,0.3-0.9c0.3-0.4,0.8-0.9,1.5-1.3V35.9z M116.2,37.7H112v-0.3c0.3,0,0.6-0.1,0.8-0.3c0.1-0.1,0.1-0.5,0.1-1V28
						c0-0.6-0.1-0.9-0.2-1.1c-0.1-0.1-0.3-0.2-0.7-0.3v-0.3h3.2v9.7c0,0.6,0.1,0.9,0.2,1.1c0.1,0.1,0.4,0.2,0.8,0.3V37.7z
						 M120.9,37.7h-4.2v-0.3c0.3,0,0.6-0.1,0.8-0.3c0.1-0.1,0.1-0.5,0.1-1v-4.6c0-0.6-0.1-0.9-0.2-1.1c-0.1-0.1-0.3-0.2-0.7-0.3
						v-0.3h3.2v6.3c0,0.6,0.1,0.9,0.2,1.1c0.1,0.1,0.4,0.2,0.8,0.3V37.7z M117.9,28.3c-0.3-0.3-0.4-0.6-0.4-0.9
						c0-0.4,0.1-0.6,0.4-0.9c0.3-0.3,0.6-0.4,0.9-0.4c0.4,0,0.6,0.1,0.9,0.4c0.3,0.3,0.3,0.6,0.3,0.9c0,0.4-0.1,0.6-0.3,0.9
						c-0.3,0.3-0.6,0.4-0.9,0.4C118.5,28.7,118.1,28.5,117.9,28.3L117.9,28.3z M122.1,34.7c-0.5,0.5-0.8,1-0.8,1.6
						c0,0.4,0.1,0.8,0.4,1.1c0.3,0.3,0.6,0.4,1.1,0.4c0.8,0,1.6-0.4,2.5-1.3c0.1,0.4,0.2,0.7,0.5,0.9c0.3,0.2,0.6,0.3,1,0.3
						c0.4,0,0.7-0.1,1-0.3c0.3-0.2,0.6-0.5,0.8-0.9l-0.3-0.2c-0.1,0.2-0.3,0.3-0.4,0.3c-0.1,0-0.1,0-0.2-0.1
						c-0.1-0.1-0.1-0.1-0.1-0.2c0-0.1-0.1-0.4-0.1-0.7v-3.1c0-0.9-0.1-1.4-0.1-1.6c-0.1-0.4-0.4-0.7-0.8-1c-0.4-0.3-1-0.5-1.7-0.5
						c-0.6,0-1.2,0.1-1.7,0.3c-0.6,0.2-1,0.5-1.3,0.9c-0.4,0.4-0.5,0.8-0.5,1.1c0,0.3,0.1,0.6,0.3,0.8s0.6,0.3,0.9,0.3
						c0.3,0,0.6-0.1,0.8-0.3c0.2-0.2,0.3-0.4,0.3-0.7c0-0.2-0.1-0.4-0.3-0.7c-0.1-0.1-0.2-0.4-0.2-0.4c0-0.1,0.1-0.3,0.2-0.4
						c0.2-0.1,0.6-0.2,0.9-0.2c0.2,0,0.4,0.1,0.6,0.1c0.2,0.1,0.3,0.2,0.3,0.4c0.1,0.1,0.1,0.5,0.1,1.1v0.8
						C123.7,33.6,122.6,34.2,122.1,34.7L122.1,34.7z M125.4,35.9c-0.4,0.3-0.7,0.5-1,0.5s-0.4-0.1-0.6-0.2c-0.2-0.2-0.3-0.4-0.3-0.7
						c0-0.3,0.1-0.6,0.4-0.9c0.3-0.4,0.8-0.9,1.5-1.3V35.9z M132.8,37.7h-3.9v-0.3c0.3,0,0.6-0.1,0.7-0.4c0.1-0.1,0.1-0.5,0.1-1.1
						v-4.4c0-0.6-0.1-1-0.1-1.1c-0.1-0.1-0.4-0.2-0.7-0.3v-0.3h3.1v1c0.4-0.4,0.8-0.8,1.1-0.9c0.4-0.2,0.8-0.3,1.2-0.3
						c0.5,0,0.9,0.1,1.3,0.4c0.3,0.3,0.6,0.6,0.6,1.1c0.1,0.3,0.1,0.9,0.1,1.8v3.1c0,0.6,0.1,1,0.1,1.1c0.1,0.1,0.3,0.2,0.7,0.3v0.3
						h-3.9v-0.3c0.3-0.1,0.5-0.1,0.6-0.4c0.1-0.1,0.1-0.5,0.1-1.1v-3.5c0-0.6,0-1.1-0.1-1.2c-0.1-0.1-0.1-0.3-0.3-0.4
						c-0.1-0.1-0.2-0.1-0.4-0.1c-0.5,0-0.9,0.4-1.3,1.1v4.2c0,0.6,0.1,1,0.1,1.1c0.1,0.1,0.3,0.3,0.6,0.3L132.8,37.7L132.8,37.7z
						 M142,34.8c-0.4-0.8-0.6-1.6-0.6-2.6c0-1.7,0.6-3.1,1.7-4.3c1.2-1.2,2.7-1.8,4.5-1.8c0.6,0,1,0.1,1.5,0.1
						c0.2,0.1,0.6,0.1,1.2,0.4s0.8,0.3,1,0.3c0.1,0,0.3-0.1,0.4-0.1c0.1-0.1,0.3-0.4,0.4-0.6h0.3v4h-0.3c-0.4-1.1-0.9-1.9-1.7-2.5
						c-0.8-0.6-1.5-0.9-2.4-0.9c-0.8,0-1.5,0.2-2.1,0.7c-0.6,0.5-1,1.1-1.2,2c-0.2,0.9-0.3,1.7-0.3,2.6c0,1.1,0.1,2.1,0.3,2.8
						c0.3,0.9,0.6,1.4,1.3,1.8c0.6,0.4,1.3,0.6,2,0.6c0.3,0,0.6,0,0.8-0.1c0.3-0.1,0.6-0.1,0.9-0.3v-2.3c0-0.4,0-0.7-0.1-0.9
						s-0.2-0.3-0.3-0.4c-0.2-0.1-0.4-0.1-0.7-0.1h-0.3V33h5.5v0.3c-0.4,0-0.7,0.1-0.8,0.1c-0.1,0.1-0.3,0.2-0.3,0.4
						c-0.1,0.1-0.1,0.4-0.1,0.8v2.3c-0.7,0.4-1.5,0.6-2.2,0.7c-0.8,0.1-1.5,0.3-2.4,0.3c-1,0-2-0.1-2.7-0.4
						c-0.7-0.3-1.3-0.7-1.9-1.1C142.8,35.9,142.4,35.4,142,34.8L142,34.8z M157.8,38c1.2,0,2.1-0.4,2.8-1.4c0.6-0.8,0.8-1.7,0.8-2.8
						c0-0.8-0.1-1.5-0.4-2.1s-0.8-1.1-1.3-1.5c-0.6-0.4-1.2-0.5-1.9-0.5c-1.1,0-2,0.4-2.7,1.3c-0.6,0.9-1,1.8-1,2.9
						c0,1.1,0.3,2.1,0.9,2.9C155.8,37.6,156.7,38,157.8,38L157.8,38z M156.7,31.9c0.1-0.6,0.2-1.1,0.4-1.3s0.4-0.4,0.7-0.4
						c0.2,0,0.4,0.1,0.6,0.1c0.2,0.1,0.4,0.4,0.5,0.8c0.1,0.4,0.1,1,0.1,2c0,1.6-0.1,2.7-0.1,3.2c-0.1,0.4-0.2,0.6-0.4,0.8
						c-0.1,0.1-0.3,0.2-0.6,0.2s-0.5-0.1-0.7-0.3s-0.3-0.5-0.4-0.9c-0.1-0.5-0.1-1.1-0.1-1.7C156.7,33.4,156.7,32.5,156.7,31.9
						L156.7,31.9z M161.8,30.5c-0.1-0.1-0.3-0.2-0.6-0.3v-0.3h4.1v0.3c-0.3,0-0.4,0.1-0.6,0.1c-0.1,0.1-0.2,0.3-0.2,0.4
						c0,0.2,0.1,0.6,0.3,1.1l1.3,2.9l1-2.6c0.3-0.7,0.4-1.2,0.4-1.6c0-0.1-0.1-0.3-0.2-0.4c-0.1-0.1-0.3-0.1-0.6-0.2v-0.3h2.5V30
						c-0.2,0-0.4,0.1-0.6,0.3c-0.1,0.1-0.4,0.6-0.7,1.4l-2.6,6.2H165l-2.6-6.1C162.2,31.2,162,30.7,161.8,30.5L161.8,30.5z
						 M169.7,36.7c0.6,0.9,1.5,1.4,2.6,1.4c0.7,0,1.3-0.2,1.7-0.6s1-1,1.4-1.8l-0.3-0.2c-0.3,0.5-0.6,0.9-0.8,1
						c-0.3,0.2-0.6,0.3-0.9,0.3c-0.6,0-1-0.2-1.4-0.7c-0.5-0.6-0.8-1.4-0.8-2.5h4.3c-0.1-1.3-0.4-2.3-0.9-2.9c-0.6-0.6-1.3-1-2-1
						c-0.9,0-1.7,0.4-2.4,1.1c-0.7,0.8-1,1.8-1,3.1C169,35,169.2,35.9,169.7,36.7L169.7,36.7z M171.2,32.7c0-0.9,0.1-1.6,0.5-2.1
						c0.2-0.3,0.4-0.4,0.7-0.4c0.2,0,0.4,0.1,0.5,0.1c0.2,0.1,0.3,0.4,0.4,0.8c0.1,0.4,0.1,0.9,0.1,1.8h-2.2V32.7z M180.1,37.7h-4.2
						v-0.3c0.3,0,0.6-0.1,0.7-0.3c0.1-0.1,0.2-0.6,0.2-1.3v-4.3c0-0.4,0-0.7-0.1-0.9s-0.1-0.3-0.2-0.4c-0.1-0.1-0.3-0.1-0.6-0.1
						v-0.3h3.1v1.8c0.5-0.8,1-1.4,1.3-1.6c0.4-0.3,0.8-0.4,1.1-0.4c0.3,0,0.6,0.1,0.8,0.3s0.3,0.4,0.3,0.8s-0.1,0.6-0.3,0.9
						s-0.4,0.3-0.6,0.3c-0.3,0-0.6-0.1-0.8-0.3s-0.3-0.3-0.3-0.4c-0.1,0-0.1-0.1-0.2-0.1c-0.1,0-0.3,0.1-0.4,0.2
						c-0.2,0.2-0.4,0.5-0.5,0.8c-0.1,0.6-0.3,1.1-0.3,1.8v1.8v0.5c0,0.3,0,0.5,0.1,0.6c0.1,0.1,0.1,0.3,0.3,0.4
						c0.1,0.1,0.4,0.1,0.6,0.1L180.1,37.7L180.1,37.7z M187,37.7h-3.9v-0.3c0.3,0,0.6-0.1,0.7-0.4c0.1-0.1,0.1-0.5,0.1-1.1v-4.4
						c0-0.6-0.1-1-0.1-1.1c-0.1-0.1-0.3-0.2-0.7-0.3v-0.3h3.1v1c0.4-0.4,0.8-0.8,1.1-0.9c0.3-0.2,0.8-0.3,1.2-0.3
						c0.5,0,0.9,0.1,1.3,0.4c0.3,0.3,0.6,0.6,0.6,1.1c0.1,0.3,0.1,0.9,0.1,1.8v3.1c0,0.6,0.1,1,0.1,1.1c0.1,0.1,0.4,0.2,0.7,0.3v0.3
						h-3.9v-0.3c0.3-0.1,0.5-0.1,0.6-0.4c0.1-0.1,0.1-0.5,0.1-1.1v-3.5c0-0.6,0-1.1-0.1-1.2s-0.1-0.3-0.3-0.4s-0.2-0.1-0.4-0.1
						c-0.5,0-0.9,0.4-1.3,1.1v4.2c0,0.6,0.1,1,0.1,1.1c0.1,0.1,0.3,0.3,0.6,0.3L187,37.7L187,37.7z M196,37.7h-4v-0.3
						c0.3,0,0.6-0.1,0.7-0.4c0.1-0.1,0.1-0.5,0.1-1.1v-4.4c0-0.6-0.1-1-0.1-1.1c-0.1-0.1-0.4-0.2-0.7-0.3v-0.3h3.1V31
						c0.4-0.5,0.8-0.8,1.2-1c0.4-0.2,0.8-0.3,1.2-0.3c0.5,0,0.9,0.1,1.3,0.4c0.4,0.2,0.6,0.6,0.8,1.1c0.4-0.5,0.8-0.9,1.3-1.1
						s0.8-0.4,1.3-0.4c0.6,0,1,0.1,1.3,0.4c0.4,0.2,0.6,0.6,0.6,0.9c0.1,0.4,0.2,1,0.2,1.8V36c0,0.6,0.1,1,0.1,1.1
						c0.1,0.1,0.4,0.2,0.7,0.3v0.3h-4v-0.3c0.3,0,0.6-0.1,0.7-0.4c0.1-0.1,0.1-0.5,0.1-1.1v-3.3c0-0.7,0-1.1-0.1-1.4
						c-0.1-0.2-0.1-0.4-0.3-0.4c-0.1-0.1-0.3-0.1-0.4-0.1c-0.2,0-0.5,0.1-0.7,0.3c-0.2,0.1-0.5,0.4-0.8,0.8V36
						c0,0.6,0.1,0.9,0.1,1.1c0.1,0.2,0.4,0.4,0.7,0.4v0.3h-4v-0.3c0.2,0,0.3-0.1,0.5-0.1c0.1-0.1,0.2-0.2,0.3-0.4
						c0.1-0.1,0.1-0.4,0.1-0.9v-3.3c0-0.7,0-1.1-0.1-1.4c-0.1-0.2-0.1-0.3-0.3-0.4c-0.1-0.1-0.3-0.1-0.4-0.1c-0.2,0-0.4,0.1-0.6,0.1
						c-0.3,0.1-0.6,0.5-0.8,0.9V36c0,0.6,0.1,0.9,0.1,1.1c0.1,0.1,0.3,0.3,0.7,0.3L196,37.7z M208.8,38c0.7,0,1.3-0.2,1.7-0.6
						c0.5-0.4,1-1,1.4-1.8l-0.3-0.2c-0.3,0.5-0.6,0.9-0.8,1c-0.3,0.2-0.6,0.3-0.9,0.3c-0.6,0-1-0.2-1.4-0.7
						c-0.5-0.6-0.8-1.4-0.8-2.5h4.3c-0.1-1.3-0.3-2.3-0.9-2.9c-0.6-0.6-1.3-1-2-1c-0.9,0-1.7,0.4-2.4,1.1c-0.7,0.8-1,1.8-1,3.1
						c0,1.1,0.2,2,0.7,2.7C206.8,37.5,207.6,38,208.8,38L208.8,38z M207.6,32.7c0-0.9,0.1-1.6,0.5-2.1c0.2-0.3,0.4-0.4,0.7-0.4
						c0.2,0,0.3,0.1,0.5,0.1c0.2,0.1,0.3,0.4,0.4,0.8c0.1,0.4,0.1,0.9,0.1,1.8h-2.2V32.7z M216.2,37.7h-3.9v-0.3
						c0.4,0,0.6-0.1,0.7-0.4c0.1-0.1,0.1-0.5,0.1-1.1v-4.4c0-0.6-0.1-1-0.1-1.1s-0.3-0.2-0.7-0.3v-0.3h3.1v1
						c0.4-0.4,0.8-0.8,1.1-0.9c0.4-0.2,0.8-0.3,1.2-0.3c0.5,0,0.9,0.1,1.3,0.4c0.4,0.3,0.6,0.6,0.6,1.1c0.1,0.3,0.1,0.9,0.1,1.8v3.1
						c0,0.6,0.1,1,0.1,1.1c0.1,0.1,0.3,0.2,0.7,0.3v0.3h-3.9v-0.3c0.3-0.1,0.5-0.1,0.6-0.4c0.1-0.1,0.1-0.5,0.1-1.1v-3.5
						c0-0.6,0-1.1-0.1-1.2s-0.1-0.3-0.3-0.4c-0.1-0.1-0.2-0.1-0.4-0.1c-0.5,0-0.9,0.4-1.3,1.1v4.2c0,0.6,0.1,1,0.1,1.1
						c0.1,0.1,0.3,0.3,0.6,0.3L216.2,37.7L216.2,37.7z M221.5,30.7h-1v-0.3c0.7-0.5,1.3-1,1.7-1.6s0.9-1.1,1.3-1.8h0.3v2.8h1.8v0.9
						h-1.8v4.8c0,0.4,0,0.8,0.1,0.9c0.1,0.1,0.1,0.2,0.2,0.3c0.1,0.1,0.2,0.1,0.3,0.1c0.4,0,0.7-0.3,1-0.9l0.3,0.2
						c-0.4,1.1-1.2,1.6-2.2,1.6c-0.5,0-0.9-0.1-1.3-0.4s-0.6-0.6-0.6-0.9c-0.1-0.2-0.1-0.7-0.1-1.6L221.5,30.7z"/>
				</g>
			</g>
			<path class="st5" d="M324.2,32c-0.3,1-0.5,2.1-0.6,2.9c-0.1,0.4-0.3,1.7-0.3,2.6c0,4.2,0,7.6,0,11.7c0,0.4-2.4,0.4-3.2,0.4
				c-0.9,0-3.1,0-3.1-0.5c0-4,0.1-7,0.1-11.4c0-0.9-0.1-1.9-0.2-2.4c-0.1-0.6-0.5-1.9-0.8-3c-1.6-5.8-2.9-10.6-4.4-16.4
				c-0.2-0.6,1.6-0.7,2.6-0.7c1.8,0,3.4,0,3.6,0.8c0.7,4.3,1.3,8.1,2,12.1c0,0.1,0.1,0.4,0.3,0.4c0.2,0,0.3-0.3,0.3-0.5
				c0.8-4.4,1.2-7.6,1.9-12.1c0.1-0.6,1.7-0.8,3.3-0.8c1.6,0,3,0,2.9,0.7C327,21.7,325.9,26.2,324.2,32"/>
		</g>
	</g>
</g>
</svg>
